<svg xmlns="http://www.w3.org/2000/svg" xmlns:xlink="http://www.w3.org/1999/xlink" width="62" zoomAndPan="magnify" viewBox="0 0 46.5 46.5" height="62" preserveAspectRatio="xMidYMid meet" version="1.2"><g id="779f938525"><path style=" stroke:none;fill-rule:nonzero;fill:#751133;fill-opacity:1;" d="M 11.46875 0 C 10.566406 0 9.832031 0.734375 9.832031 1.636719 L 9.832031 3.277344 L 6.554688 3.277344 C 2.953125 3.277344 0 6.230469 0 9.832031 L 0 39.324219 C 0 42.925781 2.953125 45.878906 6.554688 45.878906 L 39.324219 45.878906 C 42.925781 45.878906 45.878906 42.925781 45.878906 39.324219 L 45.878906 9.832031 C 45.878906 6.230469 42.925781 3.277344 39.324219 3.277344 L 36.046875 3.277344 L 36.046875 1.636719 C 36.046875 0.734375 35.3125 0 34.410156 0 C 33.503906 0 32.769531 0.734375 32.769531 1.636719 L 32.769531 3.277344 L 24.578125 3.277344 L 24.578125 1.636719 C 24.578125 0.734375 23.84375 0 22.9375 0 C 22.035156 0 21.300781 0.734375 21.300781 1.636719 L 21.300781 3.277344 L 13.109375 3.277344 L 13.109375 1.636719 C 13.109375 0.734375 12.375 0 11.46875 0 Z M 6.554688 6.554688 L 9.832031 6.554688 L 9.832031 8.191406 C 9.832031 9.097656 10.566406 9.832031 11.46875 9.832031 C 12.375 9.832031 13.109375 9.097656 13.109375 8.191406 L 13.109375 6.554688 L 21.300781 6.554688 L 21.300781 8.191406 C 21.300781 9.097656 22.035156 9.832031 22.9375 9.832031 C 23.84375 9.832031 24.578125 9.097656 24.578125 8.191406 L 24.578125 6.554688 L 32.769531 6.554688 L 32.769531 8.191406 C 32.769531 9.097656 33.503906 9.832031 34.410156 9.832031 C 35.3125 9.832031 36.046875 9.097656 36.046875 8.191406 L 36.046875 6.554688 L 39.324219 6.554688 C 41.167969 6.554688 42.601562 7.988281 42.601562 9.832031 L 42.601562 13.109375 L 3.277344 13.109375 L 3.277344 9.832031 C 3.277344 7.988281 4.710938 6.554688 6.554688 6.554688 Z M 3.277344 16.386719 L 42.601562 16.386719 L 42.601562 39.324219 C 42.601562 41.167969 41.167969 42.601562 39.324219 42.601562 L 6.554688 42.601562 C 4.710938 42.601562 3.277344 41.167969 3.277344 39.324219 Z M 3.277344 16.386719 "/><path style=" stroke:none;fill-rule:nonzero;fill:#751133;fill-opacity:1;" d="M 9.019531 21.308594 L 12.289062 21.308594 C 12.742188 21.308594 13.109375 21.667969 13.109375 22.128906 L 13.109375 25.398438 C 13.109375 25.847656 12.742188 26.214844 12.289062 26.214844 L 9.019531 26.214844 C 8.558594 26.214844 8.199219 25.847656 8.199219 25.398438 L 8.199219 22.128906 C 8.199219 21.667969 8.558594 21.308594 9.019531 21.308594 Z M 9.019531 21.308594 "/><path style=" stroke:none;fill-rule:nonzero;fill:#751133;fill-opacity:1;" d="M 17.203125 21.308594 L 20.472656 21.308594 C 20.933594 21.308594 21.292969 21.667969 21.292969 22.128906 L 21.292969 25.398438 C 21.292969 25.847656 20.933594 26.214844 20.472656 26.214844 L 17.203125 26.214844 C 16.75 26.214844 16.386719 25.847656 16.386719 25.398438 L 16.386719 22.128906 C 16.386719 21.667969 16.75 21.308594 17.203125 21.308594 Z M 17.203125 21.308594 "/><path style=" stroke:none;fill-rule:nonzero;fill:#751133;fill-opacity:1;" d="M 25.40625 21.308594 L 28.671875 21.308594 C 29.125 21.308594 29.492188 21.667969 29.492188 22.128906 L 29.492188 25.398438 C 29.492188 25.847656 29.125 26.214844 28.671875 26.214844 L 25.40625 26.214844 C 24.945312 26.214844 24.585938 25.847656 24.585938 25.398438 L 24.585938 22.128906 C 24.585938 21.667969 24.945312 21.308594 25.40625 21.308594 Z M 25.40625 21.308594 "/><path style=" stroke:none;fill-rule:nonzero;fill:#751133;fill-opacity:1;" d="M 33.589844 21.308594 L 36.859375 21.308594 C 37.320312 21.308594 37.675781 21.667969 37.675781 22.128906 L 37.675781 25.398438 C 37.675781 25.847656 37.320312 26.214844 36.859375 26.214844 L 33.589844 26.214844 C 33.136719 26.214844 32.769531 25.847656 32.769531 25.398438 L 32.769531 22.128906 C 32.769531 21.667969 33.136719 21.308594 33.589844 21.308594 Z M 33.589844 21.308594 "/><path style=" stroke:none;fill-rule:nonzero;fill:#751133;fill-opacity:1;" d="M 9.019531 31.132812 L 12.289062 31.132812 C 12.742188 31.132812 13.109375 31.5 13.109375 31.949219 L 13.109375 35.21875 C 13.109375 35.679688 12.742188 36.039062 12.289062 36.039062 L 9.019531 36.039062 C 8.558594 36.039062 8.199219 35.679688 8.199219 35.21875 L 8.199219 31.949219 C 8.199219 31.5 8.558594 31.132812 9.019531 31.132812 Z M 9.019531 31.132812 "/><path style=" stroke:none;fill-rule:nonzero;fill:#751133;fill-opacity:1;" d="M 17.203125 31.132812 L 20.472656 31.132812 C 20.933594 31.132812 21.292969 31.5 21.292969 31.949219 L 21.292969 35.21875 C 21.292969 35.679688 20.933594 36.039062 20.472656 36.039062 L 17.203125 36.039062 C 16.75 36.039062 16.386719 35.679688 16.386719 35.21875 L 16.386719 31.949219 C 16.386719 31.5 16.75 31.132812 17.203125 31.132812 Z M 17.203125 31.132812 "/><path style=" stroke:none;fill-rule:nonzero;fill:#751133;fill-opacity:1;" d="M 25.40625 31.132812 L 28.671875 31.132812 C 29.125 31.132812 29.492188 31.5 29.492188 31.949219 L 29.492188 35.21875 C 29.492188 35.679688 29.125 36.039062 28.671875 36.039062 L 25.40625 36.039062 C 24.945312 36.039062 24.585938 35.679688 24.585938 35.21875 L 24.585938 31.949219 C 24.585938 31.5 24.945312 31.132812 25.40625 31.132812 Z M 25.40625 31.132812 "/><path style=" stroke:none;fill-rule:nonzero;fill:#751133;fill-opacity:1;" d="M 33.589844 31.132812 L 36.859375 31.132812 C 37.320312 31.132812 37.675781 31.5 37.675781 31.949219 L 37.675781 35.21875 C 37.675781 35.679688 37.320312 36.039062 36.859375 36.039062 L 33.589844 36.039062 C 33.136719 36.039062 32.769531 35.679688 32.769531 35.21875 L 32.769531 31.949219 C 32.769531 31.5 33.136719 31.132812 33.589844 31.132812 Z M 33.589844 31.132812 "/></g></svg>