<svg xmlns="http://www.w3.org/2000/svg" xmlns:xlink="http://www.w3.org/1999/xlink" width="403" zoomAndPan="magnify" viewBox="0 0 302.25 302.249993" height="403" preserveAspectRatio="xMidYMid meet" version="1.2"><defs><clipPath id="c091176742"><path d="M 0 0 L 300.753906 0 L 300.753906 300.753906 L 0 300.753906 Z M 0 0 "/></clipPath><clipPath id="e15723bf17"><path d="M 300.757812 150.378906 C 300.757812 152.839844 300.699219 155.300781 300.578125 157.757812 C 300.457031 160.214844 300.277344 162.671875 300.035156 165.121094 C 299.792969 167.570312 299.492188 170.011719 299.132812 172.445312 C 298.769531 174.878906 298.351562 177.304688 297.871094 179.71875 C 297.390625 182.132812 296.851562 184.53125 296.253906 186.917969 C 295.65625 189.304688 295 191.675781 294.285156 194.03125 C 293.570312 196.386719 292.796875 198.722656 291.96875 201.042969 C 291.140625 203.359375 290.253906 205.652344 289.3125 207.925781 C 288.371094 210.203125 287.375 212.449219 286.320312 214.675781 C 285.269531 216.898438 284.164062 219.097656 283.003906 221.269531 C 281.84375 223.4375 280.628906 225.578125 279.363281 227.691406 C 278.097656 229.800781 276.78125 231.878906 275.414062 233.925781 C 274.046875 235.972656 272.632812 237.984375 271.164062 239.960938 C 269.699219 241.9375 268.1875 243.878906 266.625 245.78125 C 265.0625 247.683594 263.457031 249.546875 261.804688 251.367188 C 260.152344 253.191406 258.453125 254.972656 256.714844 256.714844 C 254.972656 258.453125 253.191406 260.152344 251.367188 261.804688 C 249.546875 263.457031 247.683594 265.0625 245.78125 266.625 C 243.878906 268.1875 241.9375 269.699219 239.960938 271.164062 C 237.984375 272.632812 235.972656 274.046875 233.925781 275.414062 C 231.878906 276.78125 229.800781 278.097656 227.691406 279.363281 C 225.578125 280.628906 223.4375 281.84375 221.269531 283.003906 C 219.097656 284.164062 216.898438 285.269531 214.675781 286.320312 C 212.449219 287.375 210.203125 288.371094 207.925781 289.3125 C 205.652344 290.253906 203.359375 291.140625 201.042969 291.96875 C 198.722656 292.796875 196.386719 293.570312 194.03125 294.285156 C 191.675781 295 189.304688 295.65625 186.917969 296.253906 C 184.53125 296.851562 182.132812 297.390625 179.71875 297.871094 C 177.304688 298.351562 174.878906 298.769531 172.445312 299.132812 C 170.011719 299.492188 167.570312 299.792969 165.121094 300.035156 C 162.671875 300.277344 160.214844 300.457031 157.757812 300.578125 C 155.300781 300.699219 152.839844 300.757812 150.378906 300.757812 C 147.917969 300.757812 145.460938 300.699219 143 300.578125 C 140.542969 300.457031 138.089844 300.277344 135.640625 300.035156 C 133.191406 299.792969 130.75 299.492188 128.3125 299.132812 C 125.878906 298.769531 123.457031 298.351562 121.042969 297.871094 C 118.628906 297.390625 116.226562 296.851562 113.839844 296.253906 C 111.453125 295.65625 109.082031 295 106.726562 294.285156 C 104.371094 293.570312 102.035156 292.796875 99.71875 291.96875 C 97.402344 291.140625 95.105469 290.253906 92.832031 289.3125 C 90.558594 288.371094 88.308594 287.375 86.085938 286.320312 C 83.859375 285.269531 81.660156 284.164062 79.492188 283.003906 C 77.320312 281.84375 75.179688 280.628906 73.070312 279.363281 C 70.957031 278.097656 68.878906 276.78125 66.832031 275.414062 C 64.785156 274.046875 62.773438 272.632812 60.796875 271.164062 C 58.820312 269.699219 56.882812 268.1875 54.980469 266.625 C 53.078125 265.0625 51.214844 263.457031 49.390625 261.804688 C 47.566406 260.152344 45.785156 258.453125 44.046875 256.714844 C 42.304688 254.972656 40.609375 253.191406 38.957031 251.367188 C 37.304688 249.546875 35.695312 247.683594 34.132812 245.78125 C 32.574219 243.878906 31.058594 241.9375 29.59375 239.960938 C 28.128906 237.984375 26.710938 235.972656 25.34375 233.925781 C 23.976562 231.878906 22.660156 229.800781 21.394531 227.691406 C 20.128906 225.578125 18.917969 223.4375 17.757812 221.269531 C 16.597656 219.097656 15.492188 216.898438 14.4375 214.675781 C 13.386719 212.449219 12.390625 210.203125 11.445312 207.925781 C 10.503906 205.652344 9.621094 203.359375 8.789062 201.042969 C 7.960938 198.722656 7.191406 196.386719 6.476562 194.03125 C 5.761719 191.675781 5.105469 189.304688 4.507812 186.917969 C 3.910156 184.53125 3.371094 182.132812 2.890625 179.71875 C 2.410156 177.304688 1.988281 174.878906 1.628906 172.445312 C 1.265625 170.011719 0.964844 167.570312 0.722656 165.121094 C 0.484375 162.671875 0.300781 160.214844 0.179688 157.757812 C 0.0585938 155.300781 0 152.839844 0 150.378906 C 0 147.917969 0.0585938 145.460938 0.179688 143 C 0.300781 140.542969 0.484375 138.089844 0.722656 135.640625 C 0.964844 133.191406 1.265625 130.75 1.628906 128.3125 C 1.988281 125.878906 2.410156 123.457031 2.890625 121.042969 C 3.371094 118.628906 3.910156 116.226562 4.507812 113.839844 C 5.105469 111.453125 5.761719 109.082031 6.476562 106.726562 C 7.191406 104.371094 7.960938 102.035156 8.789062 99.71875 C 9.621094 97.402344 10.503906 95.105469 11.445312 92.832031 C 12.390625 90.558594 13.386719 88.308594 14.4375 86.085938 C 15.492188 83.859375 16.597656 81.660156 17.757812 79.492188 C 18.917969 77.320312 20.128906 75.179688 21.394531 73.070312 C 22.660156 70.957031 23.976562 68.878906 25.34375 66.832031 C 26.710938 64.785156 28.128906 62.773438 29.59375 60.796875 C 31.058594 58.820312 32.574219 56.882812 34.132812 54.980469 C 35.695312 53.078125 37.304688 51.214844 38.957031 49.390625 C 40.609375 47.566406 42.304688 45.785156 44.046875 44.046875 C 45.785156 42.304688 47.566406 40.609375 49.390625 38.957031 C 51.214844 37.304688 53.078125 35.695312 54.980469 34.132812 C 56.882812 32.574219 58.820312 31.058594 60.796875 29.59375 C 62.773438 28.128906 64.785156 26.710938 66.832031 25.34375 C 68.878906 23.976562 70.957031 22.660156 73.070312 21.394531 C 75.179688 20.128906 77.320312 18.917969 79.492188 17.757812 C 81.660156 16.597656 83.859375 15.492188 86.085938 14.4375 C 88.308594 13.386719 90.558594 12.390625 92.832031 11.445312 C 95.105469 10.503906 97.402344 9.621094 99.71875 8.789062 C 102.035156 7.960938 104.371094 7.191406 106.726562 6.476562 C 109.082031 5.761719 111.453125 5.105469 113.839844 4.507812 C 116.226562 3.910156 118.628906 3.371094 121.042969 2.890625 C 123.457031 2.410156 125.878906 1.988281 128.3125 1.628906 C 130.75 1.265625 133.191406 0.964844 135.640625 0.722656 C 138.089844 0.484375 140.542969 0.300781 143 0.179688 C 145.460938 0.0585938 147.917969 0 150.378906 0 C 152.839844 0 155.300781 0.0585938 157.757812 0.179688 C 160.214844 0.300781 162.671875 0.484375 165.121094 0.722656 C 167.570312 0.964844 170.011719 1.265625 172.445312 1.628906 C 174.878906 1.988281 177.304688 2.410156 179.71875 2.890625 C 182.132812 3.371094 184.53125 3.910156 186.917969 4.507812 C 189.304688 5.105469 191.675781 5.761719 194.03125 6.476562 C 196.386719 7.191406 198.722656 7.960938 201.042969 8.789062 C 203.359375 9.621094 205.652344 10.503906 207.925781 11.445312 C 210.203125 12.390625 212.449219 13.386719 214.675781 14.4375 C 216.898438 15.492188 219.097656 16.597656 221.269531 17.757812 C 223.4375 18.917969 225.578125 20.128906 227.691406 21.394531 C 229.800781 22.660156 231.878906 23.976562 233.925781 25.34375 C 235.972656 26.710938 237.984375 28.128906 239.960938 29.59375 C 241.9375 31.058594 243.878906 32.574219 245.78125 34.132812 C 247.683594 35.695312 249.546875 37.304688 251.367188 38.957031 C 253.191406 40.609375 254.972656 42.304688 256.714844 44.046875 C 258.453125 45.785156 260.152344 47.566406 261.804688 49.390625 C 263.457031 51.214844 265.0625 53.078125 266.625 54.980469 C 268.1875 56.882812 269.699219 58.820312 271.164062 60.796875 C 272.632812 62.773438 274.046875 64.785156 275.414062 66.832031 C 276.78125 68.878906 278.097656 70.957031 279.363281 73.070312 C 280.628906 75.179688 281.84375 77.320312 283.003906 79.492188 C 284.164062 81.660156 285.269531 83.859375 286.320312 86.085938 C 287.375 88.308594 288.371094 90.558594 289.3125 92.832031 C 290.253906 95.105469 291.140625 97.402344 291.96875 99.71875 C 292.796875 102.035156 293.570312 104.371094 294.285156 106.726562 C 295 109.082031 295.65625 111.453125 296.253906 113.839844 C 296.851562 116.226562 297.390625 118.628906 297.871094 121.042969 C 298.351562 123.457031 298.769531 125.878906 299.132812 128.3125 C 299.492188 130.75 299.792969 133.191406 300.035156 135.640625 C 300.277344 138.089844 300.457031 140.542969 300.578125 143 C 300.699219 145.460938 300.757812 147.917969 300.757812 150.378906 Z M 300.757812 150.378906 "/></clipPath><linearGradient x1="0.0411892" gradientTransform="matrix(0,322.135459,-322.135459,0,124.578987,-13.268495)" y1="0" x2="0.974814" gradientUnits="userSpaceOnUse" y2="0" id="e489ff088b"><stop style="stop-color:#f7e381;stop-opacity:1;" offset="0"/><stop style="stop-color:#f7e380;stop-opacity:1;" offset="0.0078125"/><stop style="stop-color:#f6e27f;stop-opacity:1;" offset="0.015625"/><stop style="stop-color:#f6e17e;stop-opacity:1;" offset="0.0234375"/><stop style="stop-color:#f5e07e;stop-opacity:1;" offset="0.03125"/><stop style="stop-color:#f5df7d;stop-opacity:1;" offset="0.0390625"/><stop style="stop-color:#f4de7c;stop-opacity:1;" offset="0.046875"/><stop style="stop-color:#f4dd7b;stop-opacity:1;" offset="0.0546875"/><stop style="stop-color:#f3dc7a;stop-opacity:1;" offset="0.0625"/><stop style="stop-color:#f3dc79;stop-opacity:1;" offset="0.0703125"/><stop style="stop-color:#f2db78;stop-opacity:1;" offset="0.078125"/><stop style="stop-color:#f2da77;stop-opacity:1;" offset="0.0859375"/><stop style="stop-color:#f1d976;stop-opacity:1;" offset="0.09375"/><stop style="stop-color:#f1d875;stop-opacity:1;" offset="0.101562"/><stop style="stop-color:#f1d774;stop-opacity:1;" offset="0.109375"/><stop style="stop-color:#f0d674;stop-opacity:1;" offset="0.117188"/><stop style="stop-color:#f0d573;stop-opacity:1;" offset="0.125"/><stop style="stop-color:#efd472;stop-opacity:1;" offset="0.132812"/><stop style="stop-color:#efd471;stop-opacity:1;" offset="0.140625"/><stop style="stop-color:#eed370;stop-opacity:1;" offset="0.148438"/><stop style="stop-color:#eed26f;stop-opacity:1;" offset="0.15625"/><stop style="stop-color:#edd16e;stop-opacity:1;" offset="0.164063"/><stop style="stop-color:#edd06d;stop-opacity:1;" offset="0.171875"/><stop style="stop-color:#eccf6c;stop-opacity:1;" offset="0.179688"/><stop style="stop-color:#ecce6b;stop-opacity:1;" offset="0.1875"/><stop style="stop-color:#ebcd6a;stop-opacity:1;" offset="0.195313"/><stop style="stop-color:#ebcd6a;stop-opacity:1;" offset="0.203125"/><stop style="stop-color:#eacc69;stop-opacity:1;" offset="0.210938"/><stop style="stop-color:#eacb68;stop-opacity:1;" offset="0.21875"/><stop style="stop-color:#e9ca67;stop-opacity:1;" offset="0.226563"/><stop style="stop-color:#e9c966;stop-opacity:1;" offset="0.234375"/><stop style="stop-color:#e8c865;stop-opacity:1;" offset="0.242188"/><stop style="stop-color:#e8c764;stop-opacity:1;" offset="0.25"/><stop style="stop-color:#e7c663;stop-opacity:1;" offset="0.257813"/><stop style="stop-color:#e7c562;stop-opacity:1;" offset="0.265625"/><stop style="stop-color:#e6c561;stop-opacity:1;" offset="0.273438"/><stop style="stop-color:#e6c460;stop-opacity:1;" offset="0.28125"/><stop style="stop-color:#e5c360;stop-opacity:1;" offset="0.289063"/><stop style="stop-color:#e5c25f;stop-opacity:1;" offset="0.296875"/><stop style="stop-color:#e4c15e;stop-opacity:1;" offset="0.304688"/><stop style="stop-color:#e4c05d;stop-opacity:1;" offset="0.3125"/><stop style="stop-color:#e3bf5c;stop-opacity:1;" offset="0.320313"/><stop style="stop-color:#e3be5b;stop-opacity:1;" offset="0.328125"/><stop style="stop-color:#e2be5a;stop-opacity:1;" offset="0.335938"/><stop style="stop-color:#e2bd59;stop-opacity:1;" offset="0.34375"/><stop style="stop-color:#e1bc58;stop-opacity:1;" offset="0.351563"/><stop style="stop-color:#e1bb57;stop-opacity:1;" offset="0.359375"/><stop style="stop-color:#e0ba56;stop-opacity:1;" offset="0.367188"/><stop style="stop-color:#e0b956;stop-opacity:1;" offset="0.375"/><stop style="stop-color:#dfb855;stop-opacity:1;" offset="0.382813"/><stop style="stop-color:#dfb754;stop-opacity:1;" offset="0.390625"/><stop style="stop-color:#deb653;stop-opacity:1;" offset="0.398438"/><stop style="stop-color:#deb652;stop-opacity:1;" offset="0.40625"/><stop style="stop-color:#ddb551;stop-opacity:1;" offset="0.414063"/><stop style="stop-color:#ddb450;stop-opacity:1;" offset="0.421875"/><stop style="stop-color:#dcb34f;stop-opacity:1;" offset="0.429688"/><stop style="stop-color:#dcb24e;stop-opacity:1;" offset="0.4375"/><stop style="stop-color:#dbb14d;stop-opacity:1;" offset="0.445313"/><stop style="stop-color:#dbb04d;stop-opacity:1;" offset="0.453125"/><stop style="stop-color:#daaf4c;stop-opacity:1;" offset="0.460938"/><stop style="stop-color:#daae4b;stop-opacity:1;" offset="0.46875"/><stop style="stop-color:#d9ae4a;stop-opacity:1;" offset="0.476563"/><stop style="stop-color:#d9ad49;stop-opacity:1;" offset="0.484375"/><stop style="stop-color:#d9ac48;stop-opacity:1;" offset="0.492188"/><stop style="stop-color:#d8ab47;stop-opacity:1;" offset="0.5"/><stop style="stop-color:#d8aa46;stop-opacity:1;" offset="0.507813"/><stop style="stop-color:#d7a945;stop-opacity:1;" offset="0.515625"/><stop style="stop-color:#d7a944;stop-opacity:1;" offset="0.523438"/><stop style="stop-color:#d6a843;stop-opacity:1;" offset="0.53125"/><stop style="stop-color:#d6a742;stop-opacity:1;" offset="0.539063"/><stop style="stop-color:#d5a742;stop-opacity:1;" offset="0.546875"/><stop style="stop-color:#d5a641;stop-opacity:1;" offset="0.554688"/><stop style="stop-color:#d4a640;stop-opacity:1;" offset="0.5625"/><stop style="stop-color:#d4a53f;stop-opacity:1;" offset="0.570313"/><stop style="stop-color:#d4a43e;stop-opacity:1;" offset="0.578125"/><stop style="stop-color:#d3a43d;stop-opacity:1;" offset="0.585938"/><stop style="stop-color:#d3a33c;stop-opacity:1;" offset="0.59375"/><stop style="stop-color:#d2a33b;stop-opacity:1;" offset="0.601563"/><stop style="stop-color:#d2a23a;stop-opacity:1;" offset="0.609375"/><stop style="stop-color:#d1a139;stop-opacity:1;" offset="0.617188"/><stop style="stop-color:#d1a138;stop-opacity:1;" offset="0.625"/><stop style="stop-color:#d1a037;stop-opacity:1;" offset="0.632813"/><stop style="stop-color:#d0a036;stop-opacity:1;" offset="0.640625"/><stop style="stop-color:#d09f35;stop-opacity:1;" offset="0.648438"/><stop style="stop-color:#cf9e34;stop-opacity:1;" offset="0.65625"/><stop style="stop-color:#cf9e34;stop-opacity:1;" offset="0.664063"/><stop style="stop-color:#ce9d33;stop-opacity:1;" offset="0.671875"/><stop style="stop-color:#ce9d32;stop-opacity:1;" offset="0.679688"/><stop style="stop-color:#ce9c31;stop-opacity:1;" offset="0.6875"/><stop style="stop-color:#cd9c30;stop-opacity:1;" offset="0.695313"/><stop style="stop-color:#cd9b2f;stop-opacity:1;" offset="0.703125"/><stop style="stop-color:#cc9a2e;stop-opacity:1;" offset="0.710938"/><stop style="stop-color:#cc9a2d;stop-opacity:1;" offset="0.71875"/><stop style="stop-color:#cc992c;stop-opacity:1;" offset="0.726563"/><stop style="stop-color:#cb992b;stop-opacity:1;" offset="0.734375"/><stop style="stop-color:#cb982a;stop-opacity:1;" offset="0.742188"/><stop style="stop-color:#ca9729;stop-opacity:1;" offset="0.75"/><stop style="stop-color:#ca9728;stop-opacity:1;" offset="0.757813"/><stop style="stop-color:#c99627;stop-opacity:1;" offset="0.765625"/><stop style="stop-color:#c99627;stop-opacity:1;" offset="0.773438"/><stop style="stop-color:#c99526;stop-opacity:1;" offset="0.78125"/><stop style="stop-color:#c89425;stop-opacity:1;" offset="0.789063"/><stop style="stop-color:#c89424;stop-opacity:1;" offset="0.796875"/><stop style="stop-color:#c79323;stop-opacity:1;" offset="0.804688"/><stop style="stop-color:#c79322;stop-opacity:1;" offset="0.8125"/><stop style="stop-color:#c69221;stop-opacity:1;" offset="0.820313"/><stop style="stop-color:#c69120;stop-opacity:1;" offset="0.828125"/><stop style="stop-color:#c6911f;stop-opacity:1;" offset="0.835938"/><stop style="stop-color:#c5901e;stop-opacity:1;" offset="0.84375"/><stop style="stop-color:#c5901d;stop-opacity:1;" offset="0.851563"/><stop style="stop-color:#c48f1c;stop-opacity:1;" offset="0.859375"/><stop style="stop-color:#c48e1b;stop-opacity:1;" offset="0.867188"/><stop style="stop-color:#c38e1a;stop-opacity:1;" offset="0.875"/><stop style="stop-color:#c38d1a;stop-opacity:1;" offset="0.882813"/><stop style="stop-color:#c38d19;stop-opacity:1;" offset="0.890625"/><stop style="stop-color:#c28c18;stop-opacity:1;" offset="0.898438"/><stop style="stop-color:#c28c17;stop-opacity:1;" offset="0.90625"/><stop style="stop-color:#c18b16;stop-opacity:1;" offset="0.914063"/><stop style="stop-color:#c18a15;stop-opacity:1;" offset="0.921875"/><stop style="stop-color:#c08a14;stop-opacity:1;" offset="0.929688"/><stop style="stop-color:#c08913;stop-opacity:1;" offset="0.9375"/><stop style="stop-color:#c08912;stop-opacity:1;" offset="0.945313"/><stop style="stop-color:#bf8811;stop-opacity:1;" offset="0.953125"/><stop style="stop-color:#bf8710;stop-opacity:1;" offset="0.960938"/><stop style="stop-color:#be870f;stop-opacity:1;" offset="0.96875"/><stop style="stop-color:#be860e;stop-opacity:1;" offset="0.976563"/><stop style="stop-color:#bd860d;stop-opacity:1;" offset="0.984375"/><stop style="stop-color:#bd850d;stop-opacity:1;" offset="0.992188"/><stop style="stop-color:#bd840c;stop-opacity:1;" offset="1"/></linearGradient><clipPath id="0405d6e493"><path d="M 21 96 L 66 96 L 66 225 L 21 225 Z M 21 96 "/></clipPath><clipPath id="4229fc3c87"><path d="M 45.261719 108.300781 C 43.097656 101.800781 54.007812 96.578125 54.007812 96.578125 C 54.007812 96.578125 53.722656 99.761719 52.511719 102.890625 C 51.347656 105.898438 49.332031 108.851562 45.894531 108.871094 C 45.214844 110.277344 44.464844 111.9375 43.695312 113.820312 C 43.910156 113.578125 44.164062 113.328125 44.453125 113.074219 C 45.980469 111.742188 48.605469 110.355469 53.011719 110.148438 C 53.011719 110.148438 47.808594 118.292969 42.878906 115.894531 C 41.972656 118.277344 41.0625 120.957031 40.222656 123.914062 C 41.683594 122.328125 44.261719 120.589844 48.769531 119.800781 C 48.769531 119.800781 44.613281 128.578125 39.300781 127.386719 C 38.808594 129.394531 38.359375 131.507812 37.964844 133.714844 C 37.902344 134.070312 37.84375 134.425781 37.78125 134.785156 C 39.21875 132.886719 41.875 130.6875 46.78125 129.347656 C 46.78125 129.347656 43.144531 139.351562 37.222656 138.664062 C 36.878906 141.421875 36.640625 144.308594 36.539062 147.304688 C 37.761719 145.257812 40.183594 142.765625 44.980469 140.914062 C 44.980469 140.914062 42.394531 151.15625 36.484375 151.152344 C 36.496094 153.636719 36.605469 156.1875 36.828125 158.804688 C 36.894531 158.609375 36.972656 158.40625 37.054688 158.199219 C 38.054688 155.773438 40.296875 152.652344 45.277344 149.867188 C 45.277344 149.867188 43.996094 161.917969 37.191406 162.359375 C 37.335938 163.570312 37.507812 164.796875 37.703125 166.03125 C 37.886719 167.191406 38.09375 168.359375 38.324219 169.539062 C 38.835938 166.972656 40.414062 163.519531 44.648438 159.84375 C 44.648438 159.84375 45.859375 171.949219 39.238281 173.734375 C 39.726562 175.757812 40.285156 177.8125 40.921875 179.890625 C 41.246094 177.289062 42.582031 173.699219 46.617188 169.710938 C 46.617188 169.710938 48.582031 181.570312 42.230469 183.878906 C 42.980469 186.011719 43.816406 188.171875 44.742188 190.355469 C 44.746094 190.214844 44.75 190.074219 44.761719 189.929688 C 44.941406 187.152344 46.140625 183.253906 50.203125 178.773438 C 50.203125 178.773438 52.976562 191.222656 46.378906 194.035156 C 46.621094 194.554688 46.867188 195.070312 47.121094 195.589844 C 47.914062 197.222656 48.757812 198.867188 49.660156 200.523438 C 49.640625 200.289062 49.628906 200.042969 49.625 199.785156 C 49.589844 197.003906 50.480469 193.023438 54.179688 188.238281 C 54.179688 188.238281 57.945312 200.519531 51.496094 203.789062 C 52.359375 205.277344 53.269531 206.773438 54.222656 208.28125 C 54.523438 208.757812 54.828125 209.230469 55.140625 209.707031 C 55.105469 209.414062 55.085938 209.105469 55.074219 208.78125 C 54.980469 206 55.789062 202.003906 59.390625 197.140625 C 59.390625 197.140625 63.363281 209.214844 57.121094 212.6875 C 57.300781 212.957031 57.480469 213.222656 57.660156 213.492188 C 58.378906 214.5625 59.097656 215.648438 59.835938 216.742188 C 61.5 219.203125 63.230469 221.703125 65.121094 224.21875 C 65.238281 224.355469 65.222656 224.558594 65.085938 224.675781 C 64.949219 224.792969 64.742188 224.773438 64.628906 224.636719 C 62.4375 222.34375 60.371094 220.078125 58.460938 217.777344 C 57.605469 216.746094 56.78125 215.714844 56 214.671875 C 55.859375 214.484375 55.722656 214.296875 55.585938 214.113281 C 51.507812 219.878906 39.941406 214.699219 39.941406 214.699219 C 45.117188 211.558594 49.167969 211.167969 51.929688 211.558594 C 52.808594 211.683594 53.558594 211.886719 54.167969 212.105469 C 53.5625 211.222656 52.972656 210.332031 52.398438 209.449219 C 51.511719 208.082031 50.660156 206.71875 49.851562 205.355469 C 45.519531 210.660156 34.378906 205.394531 34.378906 205.394531 C 39.613281 202.363281 43.675781 202.050781 46.429688 202.5 C 47.234375 202.628906 47.929688 202.824219 48.511719 203.039062 C 47.28125 200.863281 46.15625 198.703125 45.117188 196.5625 C 44.9375 196.195312 44.761719 195.828125 44.589844 195.460938 C 39.875 200.484375 29.121094 194.328125 29.121094 194.328125 C 34.578125 191.714844 38.652344 191.722656 41.359375 192.382812 C 42.21875 192.59375 42.941406 192.871094 43.527344 193.148438 C 42.339844 190.476562 41.285156 187.835938 40.363281 185.226562 C 35.625 189.519531 25.964844 183.257812 25.964844 183.257812 C 31.238281 181.082031 35.070312 181.300781 37.585938 182.0625 C 38.375 182.300781 39.03125 182.59375 39.5625 182.882812 C 38.6875 180.210938 37.941406 177.582031 37.320312 174.992188 C 32.296875 178.824219 23.164062 172.035156 23.164062 172.035156 C 28.566406 170.203125 32.378906 170.667969 34.839844 171.589844 C 35.609375 171.878906 36.246094 172.214844 36.761719 172.535156 C 36.3125 170.441406 35.941406 168.378906 35.644531 166.347656 C 35.484375 165.253906 35.34375 164.171875 35.222656 163.097656 C 29.5 166.144531 21.757812 157.421875 21.757812 157.421875 C 27.421875 156.726562 31.058594 157.960938 33.277344 159.367188 C 33.984375 159.8125 34.546875 160.277344 34.984375 160.703125 C 34.707031 157.5 34.601562 154.386719 34.636719 151.378906 C 28.96875 154.011719 22.8125 144.707031 22.8125 144.707031 C 28.003906 144.808594 31.125 146.386719 32.945312 147.9375 C 33.75 148.625 34.300781 149.304688 34.664062 149.847656 C 34.773438 145.917969 35.117188 142.171875 35.628906 138.636719 C 29.640625 140.980469 24.339844 130.875 24.339844 130.875 C 29.496094 131.503906 32.441406 133.386719 34.097656 135.117188 C 34.988281 136.046875 35.503906 136.933594 35.792969 137.550781 C 36.011719 136.148438 36.257812 134.777344 36.523438 133.441406 C 36.957031 131.269531 37.449219 129.195312 37.980469 127.222656 C 32.347656 128.910156 28.390625 119.277344 28.390625 119.277344 C 32.992188 120.28125 35.488281 122.234375 36.835938 123.933594 C 37.613281 124.914062 38.007812 125.8125 38.203125 126.398438 C 39.308594 122.417969 40.5625 118.871094 41.804688 115.8125 C 36.585938 116.324219 34.140625 107.265625 34.140625 107.265625 C 38.296875 108.738281 40.386719 110.84375 41.4375 112.582031 C 41.902344 113.351562 42.164062 114.050781 42.3125 114.585938 C 43.351562 112.128906 44.367188 110.019531 45.261719 108.300781 Z M 45.261719 108.300781 "/></clipPath><linearGradient x1="-0.0000000397475" gradientTransform="matrix(0,135.626452,-135.626452,0,54.007327,96.576544)" y1="0" x2="0.945351" gradientUnits="userSpaceOnUse" y2="0" id="08609b0e46"><stop style="stop-color:#fae886;stop-opacity:1;" offset="0"/><stop style="stop-color:#fae885;stop-opacity:1;" offset="0.0078125"/><stop style="stop-color:#f9e784;stop-opacity:1;" offset="0.015625"/><stop style="stop-color:#f9e683;stop-opacity:1;" offset="0.0234375"/><stop style="stop-color:#f8e583;stop-opacity:1;" offset="0.03125"/><stop style="stop-color:#f8e482;stop-opacity:1;" offset="0.0390625"/><stop style="stop-color:#f7e381;stop-opacity:1;" offset="0.046875"/><stop style="stop-color:#f7e280;stop-opacity:1;" offset="0.0546875"/><stop style="stop-color:#f6e17f;stop-opacity:1;" offset="0.0625"/><stop style="stop-color:#f6e07e;stop-opacity:1;" offset="0.0703125"/><stop style="stop-color:#f5df7d;stop-opacity:1;" offset="0.078125"/><stop style="stop-color:#f4de7c;stop-opacity:1;" offset="0.0859375"/><stop style="stop-color:#f4dd7b;stop-opacity:1;" offset="0.09375"/><stop style="stop-color:#f3dc7a;stop-opacity:1;" offset="0.101562"/><stop style="stop-color:#f3db79;stop-opacity:1;" offset="0.109375"/><stop style="stop-color:#f2db78;stop-opacity:1;" offset="0.117188"/><stop style="stop-color:#f2da77;stop-opacity:1;" offset="0.125"/><stop style="stop-color:#f1d976;stop-opacity:1;" offset="0.132812"/><stop style="stop-color:#f1d875;stop-opacity:1;" offset="0.140625"/><stop style="stop-color:#f0d774;stop-opacity:1;" offset="0.148438"/><stop style="stop-color:#f0d673;stop-opacity:1;" offset="0.15625"/><stop style="stop-color:#efd572;stop-opacity:1;" offset="0.164062"/><stop style="stop-color:#efd471;stop-opacity:1;" offset="0.171875"/><stop style="stop-color:#eed370;stop-opacity:1;" offset="0.179688"/><stop style="stop-color:#eed26f;stop-opacity:1;" offset="0.1875"/><stop style="stop-color:#edd16e;stop-opacity:1;" offset="0.195312"/><stop style="stop-color:#edd06d;stop-opacity:1;" offset="0.203125"/><stop style="stop-color:#eccf6d;stop-opacity:1;" offset="0.210938"/><stop style="stop-color:#ecce6c;stop-opacity:1;" offset="0.21875"/><stop style="stop-color:#ebce6b;stop-opacity:1;" offset="0.226562"/><stop style="stop-color:#ebcd6a;stop-opacity:1;" offset="0.234375"/><stop style="stop-color:#eacc69;stop-opacity:1;" offset="0.242188"/><stop style="stop-color:#eacb68;stop-opacity:1;" offset="0.25"/><stop style="stop-color:#e9ca67;stop-opacity:1;" offset="0.257812"/><stop style="stop-color:#e9c966;stop-opacity:1;" offset="0.265625"/><stop style="stop-color:#e8c865;stop-opacity:1;" offset="0.273438"/><stop style="stop-color:#e8c764;stop-opacity:1;" offset="0.28125"/><stop style="stop-color:#e7c663;stop-opacity:1;" offset="0.289063"/><stop style="stop-color:#e7c562;stop-opacity:1;" offset="0.296875"/><stop style="stop-color:#e6c461;stop-opacity:1;" offset="0.304688"/><stop style="stop-color:#e6c360;stop-opacity:1;" offset="0.3125"/><stop style="stop-color:#e5c25f;stop-opacity:1;" offset="0.320312"/><stop style="stop-color:#e4c15e;stop-opacity:1;" offset="0.328125"/><stop style="stop-color:#e4c15d;stop-opacity:1;" offset="0.335937"/><stop style="stop-color:#e3c05c;stop-opacity:1;" offset="0.34375"/><stop style="stop-color:#e3bf5b;stop-opacity:1;" offset="0.351563"/><stop style="stop-color:#e2be5a;stop-opacity:1;" offset="0.359375"/><stop style="stop-color:#e2bd59;stop-opacity:1;" offset="0.367188"/><stop style="stop-color:#e1bc58;stop-opacity:1;" offset="0.375"/><stop style="stop-color:#e1bb57;stop-opacity:1;" offset="0.382812"/><stop style="stop-color:#e0ba57;stop-opacity:1;" offset="0.390625"/><stop style="stop-color:#e0b956;stop-opacity:1;" offset="0.398437"/><stop style="stop-color:#dfb855;stop-opacity:1;" offset="0.40625"/><stop style="stop-color:#dfb754;stop-opacity:1;" offset="0.414062"/><stop style="stop-color:#deb653;stop-opacity:1;" offset="0.421875"/><stop style="stop-color:#deb552;stop-opacity:1;" offset="0.429688"/><stop style="stop-color:#ddb451;stop-opacity:1;" offset="0.4375"/><stop style="stop-color:#ddb350;stop-opacity:1;" offset="0.445312"/><stop style="stop-color:#dcb34f;stop-opacity:1;" offset="0.453125"/><stop style="stop-color:#dcb24e;stop-opacity:1;" offset="0.460938"/><stop style="stop-color:#dbb14d;stop-opacity:1;" offset="0.46875"/><stop style="stop-color:#dbb04c;stop-opacity:1;" offset="0.476562"/><stop style="stop-color:#daaf4b;stop-opacity:1;" offset="0.484375"/><stop style="stop-color:#daae4a;stop-opacity:1;" offset="0.492187"/><stop style="stop-color:#d9ad49;stop-opacity:1;" offset="0.5"/><stop style="stop-color:#d9ac48;stop-opacity:1;" offset="0.507812"/><stop style="stop-color:#d8ab47;stop-opacity:1;" offset="0.515625"/><stop style="stop-color:#d8aa46;stop-opacity:1;" offset="0.523438"/><stop style="stop-color:#d7a945;stop-opacity:1;" offset="0.53125"/><stop style="stop-color:#d7a944;stop-opacity:1;" offset="0.539062"/><stop style="stop-color:#d6a843;stop-opacity:1;" offset="0.546875"/><stop style="stop-color:#d6a743;stop-opacity:1;" offset="0.554687"/><stop style="stop-color:#d5a742;stop-opacity:1;" offset="0.5625"/><stop style="stop-color:#d5a641;stop-opacity:1;" offset="0.570313"/><stop style="stop-color:#d5a640;stop-opacity:1;" offset="0.578125"/><stop style="stop-color:#d4a53f;stop-opacity:1;" offset="0.585938"/><stop style="stop-color:#d4a53e;stop-opacity:1;" offset="0.59375"/><stop style="stop-color:#d3a43d;stop-opacity:1;" offset="0.601563"/><stop style="stop-color:#d3a33c;stop-opacity:1;" offset="0.609375"/><stop style="stop-color:#d2a33b;stop-opacity:1;" offset="0.617188"/><stop style="stop-color:#d2a23a;stop-opacity:1;" offset="0.625"/><stop style="stop-color:#d2a23a;stop-opacity:1;" offset="0.632812"/><stop style="stop-color:#d1a139;stop-opacity:1;" offset="0.640625"/><stop style="stop-color:#d1a138;stop-opacity:1;" offset="0.648438"/><stop style="stop-color:#d0a037;stop-opacity:1;" offset="0.65625"/><stop style="stop-color:#d09f36;stop-opacity:1;" offset="0.664062"/><stop style="stop-color:#d09f35;stop-opacity:1;" offset="0.671875"/><stop style="stop-color:#cf9e34;stop-opacity:1;" offset="0.679687"/><stop style="stop-color:#cf9e33;stop-opacity:1;" offset="0.6875"/><stop style="stop-color:#ce9d32;stop-opacity:1;" offset="0.695313"/><stop style="stop-color:#ce9c31;stop-opacity:1;" offset="0.703125"/><stop style="stop-color:#ce9c30;stop-opacity:1;" offset="0.710938"/><stop style="stop-color:#cd9b30;stop-opacity:1;" offset="0.71875"/><stop style="stop-color:#cd9b2f;stop-opacity:1;" offset="0.726562"/><stop style="stop-color:#cc9a2e;stop-opacity:1;" offset="0.734375"/><stop style="stop-color:#cc9a2d;stop-opacity:1;" offset="0.742188"/><stop style="stop-color:#cb992c;stop-opacity:1;" offset="0.75"/><stop style="stop-color:#cb982b;stop-opacity:1;" offset="0.757812"/><stop style="stop-color:#cb982a;stop-opacity:1;" offset="0.765625"/><stop style="stop-color:#ca9729;stop-opacity:1;" offset="0.773437"/><stop style="stop-color:#ca9728;stop-opacity:1;" offset="0.78125"/><stop style="stop-color:#c99627;stop-opacity:1;" offset="0.789062"/><stop style="stop-color:#c99627;stop-opacity:1;" offset="0.796875"/><stop style="stop-color:#c99526;stop-opacity:1;" offset="0.804687"/><stop style="stop-color:#c89425;stop-opacity:1;" offset="0.8125"/><stop style="stop-color:#c89424;stop-opacity:1;" offset="0.820312"/><stop style="stop-color:#c79323;stop-opacity:1;" offset="0.828125"/><stop style="stop-color:#c79322;stop-opacity:1;" offset="0.835938"/><stop style="stop-color:#c69221;stop-opacity:1;" offset="0.84375"/><stop style="stop-color:#c69220;stop-opacity:1;" offset="0.851562"/><stop style="stop-color:#c6911f;stop-opacity:1;" offset="0.859375"/><stop style="stop-color:#c5901e;stop-opacity:1;" offset="0.867187"/><stop style="stop-color:#c5901e;stop-opacity:1;" offset="0.875"/><stop style="stop-color:#c48f1d;stop-opacity:1;" offset="0.882812"/><stop style="stop-color:#c48f1c;stop-opacity:1;" offset="0.890625"/><stop style="stop-color:#c48e1b;stop-opacity:1;" offset="0.898437"/><stop style="stop-color:#c38e1a;stop-opacity:1;" offset="0.90625"/><stop style="stop-color:#c38d19;stop-opacity:1;" offset="0.914063"/><stop style="stop-color:#c28c18;stop-opacity:1;" offset="0.921875"/><stop style="stop-color:#c28c17;stop-opacity:1;" offset="0.929688"/><stop style="stop-color:#c18b16;stop-opacity:1;" offset="0.9375"/><stop style="stop-color:#c18b15;stop-opacity:1;" offset="0.945312"/><stop style="stop-color:#c18a14;stop-opacity:1;" offset="0.953125"/><stop style="stop-color:#c08914;stop-opacity:1;" offset="0.960938"/><stop style="stop-color:#c08913;stop-opacity:1;" offset="0.96875"/><stop style="stop-color:#bf8812;stop-opacity:1;" offset="0.976562"/><stop style="stop-color:#bf8811;stop-opacity:1;" offset="0.984375"/><stop style="stop-color:#bf8710;stop-opacity:1;" offset="0.992187"/><stop style="stop-color:#be870f;stop-opacity:1;" offset="1"/></linearGradient><clipPath id="26104467a8"><path d="M 235 96 L 279 96 L 279 225 L 235 225 Z M 235 96 "/></clipPath><clipPath id="284bdb3526"><path d="M 254.863281 108.871094 C 251.425781 108.851562 249.410156 105.898438 248.246094 102.890625 C 247.039062 99.761719 246.75 96.578125 246.75 96.578125 C 246.75 96.578125 257.664062 101.800781 255.496094 108.300781 C 256.390625 110.019531 257.40625 112.128906 258.445312 114.585938 C 258.59375 114.046875 258.855469 113.351562 259.320312 112.582031 C 260.375 110.84375 262.464844 108.738281 266.621094 107.261719 C 266.621094 107.261719 264.175781 116.324219 258.953125 115.8125 C 260.195312 118.871094 261.449219 122.417969 262.554688 126.398438 C 262.75 125.8125 263.144531 124.914062 263.921875 123.933594 C 265.269531 122.234375 267.765625 120.28125 272.367188 119.277344 C 272.367188 119.277344 268.410156 128.910156 262.78125 127.222656 C 263.308594 129.195312 263.800781 131.269531 264.234375 133.441406 C 264.5 134.777344 264.746094 136.148438 264.964844 137.550781 C 265.253906 136.933594 265.773438 136.046875 266.664062 135.117188 C 268.316406 133.386719 271.261719 131.503906 276.417969 130.875 C 276.417969 130.875 271.117188 140.980469 265.128906 138.636719 C 265.640625 142.171875 265.984375 145.917969 266.09375 149.847656 C 266.457031 149.304688 267.007812 148.625 267.8125 147.9375 C 269.632812 146.386719 272.753906 144.808594 277.949219 144.707031 C 277.949219 144.707031 271.792969 154.011719 266.125 151.378906 C 266.15625 154.386719 266.050781 157.5 265.773438 160.703125 C 266.210938 160.277344 266.773438 159.8125 267.480469 159.367188 C 269.699219 157.960938 273.335938 156.726562 279 157.421875 C 279 157.421875 271.257812 166.144531 265.535156 163.097656 C 265.414062 164.171875 265.277344 165.253906 265.113281 166.347656 C 264.816406 168.378906 264.445312 170.441406 264 172.535156 C 264.511719 172.214844 265.148438 171.878906 265.917969 171.589844 C 268.378906 170.667969 272.191406 170.203125 277.59375 172.035156 C 277.59375 172.035156 268.464844 178.824219 263.441406 174.992188 C 262.816406 177.582031 262.074219 180.210938 261.199219 182.882812 C 261.730469 182.59375 262.386719 182.300781 263.171875 182.0625 C 265.6875 181.300781 269.519531 181.082031 274.792969 183.257812 C 274.792969 183.257812 265.132812 189.515625 260.398438 185.226562 C 259.472656 187.835938 258.421875 190.476562 257.230469 193.148438 C 257.816406 192.871094 258.539062 192.59375 259.398438 192.382812 C 262.109375 191.722656 266.179688 191.714844 271.640625 194.328125 C 271.640625 194.328125 260.886719 200.484375 256.171875 195.460938 C 255.996094 195.828125 255.820312 196.195312 255.644531 196.5625 C 254.605469 198.703125 253.476562 200.863281 252.25 203.039062 C 252.828125 202.824219 253.523438 202.628906 254.332031 202.5 C 257.082031 202.050781 261.144531 202.363281 266.382812 205.394531 C 266.382812 205.394531 255.238281 210.660156 250.90625 205.355469 C 250.097656 206.71875 249.25 208.082031 248.359375 209.449219 C 247.785156 210.332031 247.199219 211.222656 246.589844 212.105469 C 247.199219 211.886719 247.949219 211.683594 248.828125 211.558594 C 251.589844 211.167969 255.644531 211.558594 260.816406 214.699219 C 260.816406 214.699219 249.25 219.878906 245.171875 214.113281 C 245.035156 214.296875 244.898438 214.484375 244.757812 214.671875 C 243.976562 215.714844 243.15625 216.746094 242.300781 217.777344 C 240.386719 220.078125 238.320312 222.34375 236.132812 224.636719 C 236.015625 224.773438 235.8125 224.792969 235.675781 224.675781 C 235.539062 224.558594 235.519531 224.355469 235.636719 224.21875 C 237.527344 221.703125 239.257812 219.203125 240.921875 216.742188 C 241.660156 215.648438 242.378906 214.5625 243.097656 213.492188 C 243.277344 213.222656 243.457031 212.957031 243.636719 212.6875 C 237.394531 209.214844 241.367188 197.140625 241.367188 197.140625 C 244.972656 202.003906 245.777344 206 245.6875 208.777344 C 245.675781 209.105469 245.652344 209.414062 245.621094 209.707031 C 245.929688 209.230469 246.234375 208.757812 246.535156 208.28125 C 247.488281 206.773438 248.398438 205.277344 249.265625 203.789062 C 242.8125 200.519531 246.578125 188.238281 246.578125 188.238281 C 250.277344 193.023438 251.167969 197.003906 251.132812 199.785156 C 251.128906 200.042969 251.117188 200.289062 251.101562 200.523438 C 252 198.867188 252.847656 197.222656 253.636719 195.589844 C 253.890625 195.070312 254.136719 194.554688 254.378906 194.035156 C 247.78125 191.222656 250.554688 178.773438 250.554688 178.773438 C 254.617188 183.253906 255.816406 187.152344 256 189.929688 C 256.007812 190.074219 256.015625 190.214844 256.019531 190.355469 C 256.945312 188.171875 257.777344 186.011719 258.527344 183.878906 C 252.175781 181.570312 254.140625 169.710938 254.140625 169.710938 C 258.179688 173.699219 259.515625 177.289062 259.839844 179.890625 C 260.476562 177.8125 261.035156 175.757812 261.519531 173.734375 C 254.902344 171.949219 256.113281 159.84375 256.113281 159.84375 C 260.34375 163.515625 261.921875 166.972656 262.433594 169.539062 C 262.664062 168.359375 262.871094 167.191406 263.054688 166.03125 C 263.25 164.796875 263.421875 163.570312 263.566406 162.359375 C 256.761719 161.917969 255.480469 149.867188 255.480469 149.867188 C 260.460938 152.652344 262.703125 155.773438 263.703125 158.199219 C 263.789062 158.40625 263.863281 158.605469 263.933594 158.804688 C 264.152344 156.1875 264.261719 153.636719 264.273438 151.152344 C 258.363281 151.15625 255.777344 140.914062 255.777344 140.914062 C 260.574219 142.765625 262.996094 145.257812 264.21875 147.304688 C 264.117188 144.308594 263.878906 141.421875 263.539062 138.664062 C 257.613281 139.351562 253.980469 129.347656 253.980469 129.347656 C 258.882812 130.6875 261.542969 132.886719 262.976562 134.785156 C 262.917969 134.425781 262.855469 134.070312 262.792969 133.714844 C 262.402344 131.507812 261.949219 129.394531 261.457031 127.386719 C 256.144531 128.578125 251.988281 119.800781 251.988281 119.800781 C 256.496094 120.589844 259.078125 122.328125 260.539062 123.914062 C 259.699219 120.957031 258.785156 118.273438 257.878906 115.894531 C 252.949219 118.292969 247.746094 110.148438 247.746094 110.148438 C 252.152344 110.355469 254.78125 111.738281 256.304688 113.074219 C 256.597656 113.328125 256.847656 113.578125 257.0625 113.820312 C 256.292969 111.9375 255.542969 110.277344 254.863281 108.871094 Z M 254.863281 108.871094 "/></clipPath><linearGradient x1="-0.0518035" gradientTransform="matrix(0,121.862488,-121.862488,0,248.24705,102.889439)" y1="0" x2="1.000322" gradientUnits="userSpaceOnUse" y2="0" id="9dce58259a"><stop style="stop-color:#fae886;stop-opacity:1;" offset="0"/><stop style="stop-color:#fae886;stop-opacity:1;" offset="0.03125"/><stop style="stop-color:#fae886;stop-opacity:1;" offset="0.046875"/><stop style="stop-color:#fae885;stop-opacity:1;" offset="0.0546875"/><stop style="stop-color:#f9e785;stop-opacity:1;" offset="0.0585938"/><stop style="stop-color:#f9e684;stop-opacity:1;" offset="0.0625"/><stop style="stop-color:#f9e684;stop-opacity:1;" offset="0.0664062"/><stop style="stop-color:#f8e583;stop-opacity:1;" offset="0.0703125"/><stop style="stop-color:#f8e582;stop-opacity:1;" offset="0.0742188"/><stop style="stop-color:#f8e482;stop-opacity:1;" offset="0.078125"/><stop style="stop-color:#f7e481;stop-opacity:1;" offset="0.0820312"/><stop style="stop-color:#f7e381;stop-opacity:1;" offset="0.0859375"/><stop style="stop-color:#f7e380;stop-opacity:1;" offset="0.0898438"/><stop style="stop-color:#f7e280;stop-opacity:1;" offset="0.09375"/><stop style="stop-color:#f6e27f;stop-opacity:1;" offset="0.0976562"/><stop style="stop-color:#f6e17f;stop-opacity:1;" offset="0.101562"/><stop style="stop-color:#f6e17e;stop-opacity:1;" offset="0.105469"/><stop style="stop-color:#f5e07e;stop-opacity:1;" offset="0.109375"/><stop style="stop-color:#f5e07d;stop-opacity:1;" offset="0.113281"/><stop style="stop-color:#f5df7d;stop-opacity:1;" offset="0.117188"/><stop style="stop-color:#f5df7c;stop-opacity:1;" offset="0.121094"/><stop style="stop-color:#f4de7c;stop-opacity:1;" offset="0.125"/><stop style="stop-color:#f4dd7b;stop-opacity:1;" offset="0.128906"/><stop style="stop-color:#f4dd7a;stop-opacity:1;" offset="0.132812"/><stop style="stop-color:#f3dc7a;stop-opacity:1;" offset="0.136719"/><stop style="stop-color:#f3dc79;stop-opacity:1;" offset="0.140625"/><stop style="stop-color:#f3db79;stop-opacity:1;" offset="0.144531"/><stop style="stop-color:#f3db78;stop-opacity:1;" offset="0.148438"/><stop style="stop-color:#f2da78;stop-opacity:1;" offset="0.152344"/><stop style="stop-color:#f2da77;stop-opacity:1;" offset="0.15625"/><stop style="stop-color:#f2d977;stop-opacity:1;" offset="0.160156"/><stop style="stop-color:#f1d976;stop-opacity:1;" offset="0.164062"/><stop style="stop-color:#f1d876;stop-opacity:1;" offset="0.167969"/><stop style="stop-color:#f1d875;stop-opacity:1;" offset="0.171875"/><stop style="stop-color:#f1d775;stop-opacity:1;" offset="0.175781"/><stop style="stop-color:#f0d774;stop-opacity:1;" offset="0.179687"/><stop style="stop-color:#f0d674;stop-opacity:1;" offset="0.183594"/><stop style="stop-color:#f0d673;stop-opacity:1;" offset="0.1875"/><stop style="stop-color:#efd572;stop-opacity:1;" offset="0.191406"/><stop style="stop-color:#efd572;stop-opacity:1;" offset="0.195312"/><stop style="stop-color:#efd471;stop-opacity:1;" offset="0.199219"/><stop style="stop-color:#efd471;stop-opacity:1;" offset="0.203125"/><stop style="stop-color:#eed370;stop-opacity:1;" offset="0.207031"/><stop style="stop-color:#eed370;stop-opacity:1;" offset="0.210938"/><stop style="stop-color:#eed26f;stop-opacity:1;" offset="0.214844"/><stop style="stop-color:#edd26f;stop-opacity:1;" offset="0.21875"/><stop style="stop-color:#edd16e;stop-opacity:1;" offset="0.222656"/><stop style="stop-color:#edd16e;stop-opacity:1;" offset="0.226562"/><stop style="stop-color:#edd06d;stop-opacity:1;" offset="0.230469"/><stop style="stop-color:#ecd06d;stop-opacity:1;" offset="0.234375"/><stop style="stop-color:#eccf6c;stop-opacity:1;" offset="0.238281"/><stop style="stop-color:#ecce6c;stop-opacity:1;" offset="0.242187"/><stop style="stop-color:#ebce6b;stop-opacity:1;" offset="0.246094"/><stop style="stop-color:#ebcd6b;stop-opacity:1;" offset="0.25"/><stop style="stop-color:#ebcd6a;stop-opacity:1;" offset="0.253906"/><stop style="stop-color:#ebcc69;stop-opacity:1;" offset="0.257813"/><stop style="stop-color:#eacc69;stop-opacity:1;" offset="0.261719"/><stop style="stop-color:#eacb68;stop-opacity:1;" offset="0.265625"/><stop style="stop-color:#eacb68;stop-opacity:1;" offset="0.269531"/><stop style="stop-color:#e9ca67;stop-opacity:1;" offset="0.273438"/><stop style="stop-color:#e9ca67;stop-opacity:1;" offset="0.277344"/><stop style="stop-color:#e9c966;stop-opacity:1;" offset="0.28125"/><stop style="stop-color:#e9c966;stop-opacity:1;" offset="0.285156"/><stop style="stop-color:#e8c865;stop-opacity:1;" offset="0.289062"/><stop style="stop-color:#e8c865;stop-opacity:1;" offset="0.292969"/><stop style="stop-color:#e8c764;stop-opacity:1;" offset="0.296875"/><stop style="stop-color:#e7c764;stop-opacity:1;" offset="0.300781"/><stop style="stop-color:#e7c663;stop-opacity:1;" offset="0.304688"/><stop style="stop-color:#e7c663;stop-opacity:1;" offset="0.308594"/><stop style="stop-color:#e7c562;stop-opacity:1;" offset="0.3125"/><stop style="stop-color:#e6c561;stop-opacity:1;" offset="0.316406"/><stop style="stop-color:#e6c461;stop-opacity:1;" offset="0.320312"/><stop style="stop-color:#e6c460;stop-opacity:1;" offset="0.324219"/><stop style="stop-color:#e5c360;stop-opacity:1;" offset="0.328125"/><stop style="stop-color:#e5c35f;stop-opacity:1;" offset="0.332031"/><stop style="stop-color:#e5c25f;stop-opacity:1;" offset="0.335938"/><stop style="stop-color:#e5c25e;stop-opacity:1;" offset="0.339844"/><stop style="stop-color:#e4c15e;stop-opacity:1;" offset="0.34375"/><stop style="stop-color:#e4c05d;stop-opacity:1;" offset="0.347656"/><stop style="stop-color:#e4c05d;stop-opacity:1;" offset="0.351562"/><stop style="stop-color:#e3bf5c;stop-opacity:1;" offset="0.355469"/><stop style="stop-color:#e3bf5c;stop-opacity:1;" offset="0.359375"/><stop style="stop-color:#e3be5b;stop-opacity:1;" offset="0.363281"/><stop style="stop-color:#e3be5b;stop-opacity:1;" offset="0.367188"/><stop style="stop-color:#e2bd5a;stop-opacity:1;" offset="0.371094"/><stop style="stop-color:#e2bd59;stop-opacity:1;" offset="0.375"/><stop style="stop-color:#e2bc59;stop-opacity:1;" offset="0.378906"/><stop style="stop-color:#e1bc58;stop-opacity:1;" offset="0.382812"/><stop style="stop-color:#e1bb58;stop-opacity:1;" offset="0.386719"/><stop style="stop-color:#e1bb57;stop-opacity:1;" offset="0.390625"/><stop style="stop-color:#e1ba57;stop-opacity:1;" offset="0.394531"/><stop style="stop-color:#e0ba56;stop-opacity:1;" offset="0.398438"/><stop style="stop-color:#e0b956;stop-opacity:1;" offset="0.402344"/><stop style="stop-color:#e0b955;stop-opacity:1;" offset="0.40625"/><stop style="stop-color:#dfb855;stop-opacity:1;" offset="0.410156"/><stop style="stop-color:#dfb854;stop-opacity:1;" offset="0.414062"/><stop style="stop-color:#dfb754;stop-opacity:1;" offset="0.417969"/><stop style="stop-color:#dfb753;stop-opacity:1;" offset="0.421875"/><stop style="stop-color:#deb653;stop-opacity:1;" offset="0.425781"/><stop style="stop-color:#deb652;stop-opacity:1;" offset="0.429688"/><stop style="stop-color:#deb551;stop-opacity:1;" offset="0.433594"/><stop style="stop-color:#ddb551;stop-opacity:1;" offset="0.4375"/><stop style="stop-color:#ddb450;stop-opacity:1;" offset="0.441406"/><stop style="stop-color:#ddb450;stop-opacity:1;" offset="0.445312"/><stop style="stop-color:#dcb34f;stop-opacity:1;" offset="0.449219"/><stop style="stop-color:#dcb34f;stop-opacity:1;" offset="0.453125"/><stop style="stop-color:#dcb24e;stop-opacity:1;" offset="0.457031"/><stop style="stop-color:#dcb14e;stop-opacity:1;" offset="0.460938"/><stop style="stop-color:#dbb14d;stop-opacity:1;" offset="0.464844"/><stop style="stop-color:#dbb04d;stop-opacity:1;" offset="0.46875"/><stop style="stop-color:#dbb04c;stop-opacity:1;" offset="0.472656"/><stop style="stop-color:#daaf4c;stop-opacity:1;" offset="0.476562"/><stop style="stop-color:#daaf4b;stop-opacity:1;" offset="0.480469"/><stop style="stop-color:#daae4b;stop-opacity:1;" offset="0.484375"/><stop style="stop-color:#daae4a;stop-opacity:1;" offset="0.488281"/><stop style="stop-color:#d9ad4a;stop-opacity:1;" offset="0.492188"/><stop style="stop-color:#d9ad49;stop-opacity:1;" offset="0.496094"/><stop style="stop-color:#d9ac48;stop-opacity:1;" offset="0.5"/><stop style="stop-color:#d8ac48;stop-opacity:1;" offset="0.503906"/><stop style="stop-color:#d8ab47;stop-opacity:1;" offset="0.507812"/><stop style="stop-color:#d8ab47;stop-opacity:1;" offset="0.511719"/><stop style="stop-color:#d8aa46;stop-opacity:1;" offset="0.515625"/><stop style="stop-color:#d7aa46;stop-opacity:1;" offset="0.519531"/><stop style="stop-color:#d7a945;stop-opacity:1;" offset="0.523438"/><stop style="stop-color:#d7a945;stop-opacity:1;" offset="0.527344"/><stop style="stop-color:#d7a944;stop-opacity:1;" offset="0.53125"/><stop style="stop-color:#d6a844;stop-opacity:1;" offset="0.535156"/><stop style="stop-color:#d6a843;stop-opacity:1;" offset="0.539062"/><stop style="stop-color:#d6a843;stop-opacity:1;" offset="0.542969"/><stop style="stop-color:#d6a742;stop-opacity:1;" offset="0.546875"/><stop style="stop-color:#d5a742;stop-opacity:1;" offset="0.550781"/><stop style="stop-color:#d5a741;stop-opacity:1;" offset="0.554687"/><stop style="stop-color:#d5a641;stop-opacity:1;" offset="0.558594"/><stop style="stop-color:#d5a640;stop-opacity:1;" offset="0.5625"/><stop style="stop-color:#d4a640;stop-opacity:1;" offset="0.566406"/><stop style="stop-color:#d4a53f;stop-opacity:1;" offset="0.570312"/><stop style="stop-color:#d4a53f;stop-opacity:1;" offset="0.574219"/><stop style="stop-color:#d4a53e;stop-opacity:1;" offset="0.578125"/><stop style="stop-color:#d4a43e;stop-opacity:1;" offset="0.582031"/><stop style="stop-color:#d3a43d;stop-opacity:1;" offset="0.585937"/><stop style="stop-color:#d3a43d;stop-opacity:1;" offset="0.589844"/><stop style="stop-color:#d3a33c;stop-opacity:1;" offset="0.59375"/><stop style="stop-color:#d3a33c;stop-opacity:1;" offset="0.597656"/><stop style="stop-color:#d2a33b;stop-opacity:1;" offset="0.601562"/><stop style="stop-color:#d2a23b;stop-opacity:1;" offset="0.605469"/><stop style="stop-color:#d2a23a;stop-opacity:1;" offset="0.609375"/><stop style="stop-color:#d2a23a;stop-opacity:1;" offset="0.613281"/><stop style="stop-color:#d1a139;stop-opacity:1;" offset="0.617188"/><stop style="stop-color:#d1a139;stop-opacity:1;" offset="0.621094"/><stop style="stop-color:#d1a138;stop-opacity:1;" offset="0.625"/><stop style="stop-color:#d1a038;stop-opacity:1;" offset="0.628906"/><stop style="stop-color:#d1a037;stop-opacity:1;" offset="0.632812"/><stop style="stop-color:#d0a037;stop-opacity:1;" offset="0.636719"/><stop style="stop-color:#d0a036;stop-opacity:1;" offset="0.640625"/><stop style="stop-color:#d09f36;stop-opacity:1;" offset="0.644531"/><stop style="stop-color:#d09f35;stop-opacity:1;" offset="0.648437"/><stop style="stop-color:#cf9f35;stop-opacity:1;" offset="0.652344"/><stop style="stop-color:#cf9e34;stop-opacity:1;" offset="0.65625"/><stop style="stop-color:#cf9e34;stop-opacity:1;" offset="0.660156"/><stop style="stop-color:#cf9e33;stop-opacity:1;" offset="0.664062"/><stop style="stop-color:#ce9d33;stop-opacity:1;" offset="0.667969"/><stop style="stop-color:#ce9d32;stop-opacity:1;" offset="0.671875"/><stop style="stop-color:#ce9d32;stop-opacity:1;" offset="0.675781"/><stop style="stop-color:#ce9c31;stop-opacity:1;" offset="0.679688"/><stop style="stop-color:#ce9c31;stop-opacity:1;" offset="0.683594"/><stop style="stop-color:#cd9c30;stop-opacity:1;" offset="0.6875"/><stop style="stop-color:#cd9b30;stop-opacity:1;" offset="0.691406"/><stop style="stop-color:#cd9b2f;stop-opacity:1;" offset="0.695312"/><stop style="stop-color:#cd9b2f;stop-opacity:1;" offset="0.699219"/><stop style="stop-color:#cc9a2e;stop-opacity:1;" offset="0.703125"/><stop style="stop-color:#cc9a2e;stop-opacity:1;" offset="0.707031"/><stop style="stop-color:#cc9a2d;stop-opacity:1;" offset="0.710937"/><stop style="stop-color:#cc992d;stop-opacity:1;" offset="0.714844"/><stop style="stop-color:#cb992c;stop-opacity:1;" offset="0.71875"/><stop style="stop-color:#cb992c;stop-opacity:1;" offset="0.722656"/><stop style="stop-color:#cb982b;stop-opacity:1;" offset="0.726562"/><stop style="stop-color:#cb982b;stop-opacity:1;" offset="0.730469"/><stop style="stop-color:#cb982a;stop-opacity:1;" offset="0.734375"/><stop style="stop-color:#ca982a;stop-opacity:1;" offset="0.738281"/><stop style="stop-color:#ca9729;stop-opacity:1;" offset="0.742188"/><stop style="stop-color:#ca9729;stop-opacity:1;" offset="0.746094"/><stop style="stop-color:#ca9728;stop-opacity:1;" offset="0.75"/><stop style="stop-color:#c99628;stop-opacity:1;" offset="0.753906"/><stop style="stop-color:#c99627;stop-opacity:1;" offset="0.757812"/><stop style="stop-color:#c99627;stop-opacity:1;" offset="0.761719"/><stop style="stop-color:#c99526;stop-opacity:1;" offset="0.765625"/><stop style="stop-color:#c89526;stop-opacity:1;" offset="0.769531"/><stop style="stop-color:#c89525;stop-opacity:1;" offset="0.773437"/><stop style="stop-color:#c89425;stop-opacity:1;" offset="0.777344"/><stop style="stop-color:#c89424;stop-opacity:1;" offset="0.78125"/><stop style="stop-color:#c89424;stop-opacity:1;" offset="0.785156"/><stop style="stop-color:#c79323;stop-opacity:1;" offset="0.789062"/><stop style="stop-color:#c79323;stop-opacity:1;" offset="0.792969"/><stop style="stop-color:#c79322;stop-opacity:1;" offset="0.796875"/><stop style="stop-color:#c79222;stop-opacity:1;" offset="0.800781"/><stop style="stop-color:#c69221;stop-opacity:1;" offset="0.804688"/><stop style="stop-color:#c69221;stop-opacity:1;" offset="0.808594"/><stop style="stop-color:#c69120;stop-opacity:1;" offset="0.8125"/><stop style="stop-color:#c69120;stop-opacity:1;" offset="0.816406"/><stop style="stop-color:#c6911f;stop-opacity:1;" offset="0.820312"/><stop style="stop-color:#c5901f;stop-opacity:1;" offset="0.824219"/><stop style="stop-color:#c5901e;stop-opacity:1;" offset="0.828125"/><stop style="stop-color:#c5901d;stop-opacity:1;" offset="0.832031"/><stop style="stop-color:#c58f1d;stop-opacity:1;" offset="0.835937"/><stop style="stop-color:#c48f1c;stop-opacity:1;" offset="0.839844"/><stop style="stop-color:#c48f1c;stop-opacity:1;" offset="0.84375"/><stop style="stop-color:#c48f1b;stop-opacity:1;" offset="0.847656"/><stop style="stop-color:#c48e1b;stop-opacity:1;" offset="0.851562"/><stop style="stop-color:#c38e1a;stop-opacity:1;" offset="0.855469"/><stop style="stop-color:#c38e1a;stop-opacity:1;" offset="0.859375"/><stop style="stop-color:#c38d19;stop-opacity:1;" offset="0.863281"/><stop style="stop-color:#c38d19;stop-opacity:1;" offset="0.867188"/><stop style="stop-color:#c38d18;stop-opacity:1;" offset="0.871094"/><stop style="stop-color:#c28c18;stop-opacity:1;" offset="0.875"/><stop style="stop-color:#c28c17;stop-opacity:1;" offset="0.878906"/><stop style="stop-color:#c28c17;stop-opacity:1;" offset="0.882812"/><stop style="stop-color:#c28b16;stop-opacity:1;" offset="0.886719"/><stop style="stop-color:#c18b16;stop-opacity:1;" offset="0.890625"/><stop style="stop-color:#c18b15;stop-opacity:1;" offset="0.894531"/><stop style="stop-color:#c18a15;stop-opacity:1;" offset="0.898437"/><stop style="stop-color:#c18a14;stop-opacity:1;" offset="0.902344"/><stop style="stop-color:#c08a14;stop-opacity:1;" offset="0.90625"/><stop style="stop-color:#c08913;stop-opacity:1;" offset="0.910156"/><stop style="stop-color:#c08913;stop-opacity:1;" offset="0.914063"/><stop style="stop-color:#c08912;stop-opacity:1;" offset="0.917969"/><stop style="stop-color:#c08812;stop-opacity:1;" offset="0.921875"/><stop style="stop-color:#bf8811;stop-opacity:1;" offset="0.925781"/><stop style="stop-color:#bf8811;stop-opacity:1;" offset="0.929688"/><stop style="stop-color:#bf8710;stop-opacity:1;" offset="0.933594"/><stop style="stop-color:#bf8710;stop-opacity:1;" offset="0.9375"/><stop style="stop-color:#be870f;stop-opacity:1;" offset="0.941406"/><stop style="stop-color:#be870f;stop-opacity:1;" offset="0.945312"/><stop style="stop-color:#be860e;stop-opacity:1;" offset="0.949219"/><stop style="stop-color:#be860e;stop-opacity:1;" offset="0.953125"/><stop style="stop-color:#bd860d;stop-opacity:1;" offset="0.957031"/><stop style="stop-color:#bd850d;stop-opacity:1;" offset="0.960937"/><stop style="stop-color:#bd850c;stop-opacity:1;" offset="0.964844"/><stop style="stop-color:#bd850c;stop-opacity:1;" offset="0.96875"/><stop style="stop-color:#bd840b;stop-opacity:1;" offset="0.972656"/><stop style="stop-color:#bc840b;stop-opacity:1;" offset="0.976563"/><stop style="stop-color:#bc840a;stop-opacity:1;" offset="0.980469"/><stop style="stop-color:#bc830a;stop-opacity:1;" offset="0.984375"/><stop style="stop-color:#bc8309;stop-opacity:1;" offset="0.988281"/><stop style="stop-color:#bb8309;stop-opacity:1;" offset="0.992188"/><stop style="stop-color:#bb8208;stop-opacity:1;" offset="1"/></linearGradient></defs><g id="5b1adebc1f"><g clip-rule="nonzero" clip-path="url(#c091176742)"><g clip-rule="nonzero" clip-path="url(#e15723bf17)"><path style=" stroke:none;fill-rule:nonzero;fill:url(#e489ff088b);" d="M 300.753906 0 L 0 0 L 0 300.753906 L 300.753906 300.753906 Z M 300.753906 0 "/></g></g><path style=" stroke:none;fill-rule:evenodd;fill:#000000;fill-opacity:1;" d="M 150.378906 12.09375 C 226.703125 12.09375 288.664062 74.058594 288.664062 150.378906 C 288.664062 226.703125 226.703125 288.664062 150.378906 288.664062 C 74.058594 288.664062 12.09375 226.703125 12.09375 150.378906 C 12.09375 74.058594 74.058594 12.09375 150.378906 12.09375 Z M 150.378906 65.199219 C 197.390625 65.199219 235.558594 103.367188 235.558594 150.378906 C 235.558594 197.390625 197.390625 235.558594 150.378906 235.558594 C 103.367188 235.558594 65.199219 197.390625 65.199219 150.378906 C 65.199219 103.367188 103.367188 65.199219 150.378906 65.199219 Z M 150.378906 65.199219 "/><path style=" stroke:none;fill-rule:nonzero;fill:#000000;fill-opacity:1;" d="M 157.574219 182.210938 C 152.894531 182.210938 149.3125 180.882812 146.824219 178.222656 C 144.339844 175.566406 143.097656 171.808594 143.097656 166.953125 L 143.097656 135.050781 C 143.097656 130.195312 144.339844 126.441406 146.824219 123.78125 C 149.3125 121.125 152.894531 119.792969 157.574219 119.792969 C 162.257812 119.792969 165.839844 121.125 168.324219 123.78125 C 170.808594 126.441406 172.050781 130.195312 172.050781 135.050781 L 172.050781 166.953125 C 172.050781 171.808594 170.808594 175.566406 168.324219 178.222656 C 165.839844 180.882812 162.257812 182.210938 157.574219 182.210938 Z M 122.898438 182.210938 C 118.21875 182.210938 114.632812 180.882812 112.148438 178.222656 C 109.664062 175.566406 108.421875 171.808594 108.421875 166.953125 L 108.421875 135.050781 C 108.421875 130.195312 109.664062 126.441406 112.148438 123.78125 C 114.632812 121.125 118.21875 119.792969 122.898438 119.792969 C 127.578125 119.792969 131.164062 121.125 133.648438 123.78125 C 136.132812 126.441406 137.375 130.195312 137.375 135.050781 L 137.375 166.953125 C 137.375 171.808594 136.132812 175.566406 133.648438 178.222656 C 131.164062 180.882812 127.578125 182.210938 122.898438 182.210938 Z M 213.75 182.210938 C 210.746094 182.210938 208.460938 181.375 206.902344 179.699219 C 205.34375 178.023438 204.5625 175.625 204.5625 172.503906 L 204.5625 157.332031 C 204.5625 154.210938 205.34375 151.8125 206.902344 150.136719 C 208.460938 148.460938 210.746094 147.621094 213.75 147.621094 C 216.757812 147.621094 219.039062 148.460938 220.597656 150.136719 C 222.160156 151.8125 222.941406 154.210938 222.941406 157.332031 L 222.941406 172.503906 C 222.941406 175.625 222.160156 178.023438 220.597656 179.699219 C 219.039062 181.375 216.757812 182.210938 213.75 182.210938 Z M 87.789062 135.050781 L 77.820312 135.050781 L 77.820312 128.289062 C 80.535156 128.289062 82.714844 128.058594 84.363281 127.597656 C 86.011719 127.132812 87.324219 126.367188 88.308594 125.300781 C 89.292969 124.230469 90.15625 122.683594 90.910156 120.660156 L 97.324219 120.660156 L 97.324219 181.34375 L 87.789062 181.34375 Z M 209.15625 120.660156 L 215.226562 120.660156 L 191.730469 181.34375 L 185.664062 181.34375 Z M 213.75 176.75 C 215.832031 176.75 216.871094 175.480469 216.871094 172.9375 L 216.871094 156.898438 C 216.871094 154.355469 215.832031 153.082031 213.75 153.082031 C 211.671875 153.082031 210.628906 154.355469 210.628906 156.898438 L 210.628906 172.9375 C 210.628906 175.480469 211.671875 176.75 213.75 176.75 Z M 157.574219 173.542969 C 160.871094 173.542969 162.515625 171.550781 162.515625 167.5625 L 162.515625 134.445312 C 162.515625 130.457031 160.871094 128.464844 157.574219 128.464844 C 154.28125 128.464844 152.632812 130.457031 152.632812 134.445312 L 152.632812 167.5625 C 152.632812 171.550781 154.28125 173.542969 157.574219 173.542969 Z M 122.898438 173.542969 C 126.191406 173.542969 127.839844 171.550781 127.839844 167.5625 L 127.839844 134.445312 C 127.839844 130.457031 126.191406 128.464844 122.898438 128.464844 C 119.605469 128.464844 117.957031 130.457031 117.957031 134.445312 L 117.957031 167.5625 C 117.957031 171.550781 119.605469 173.542969 122.898438 173.542969 Z M 187.136719 154.382812 C 184.132812 154.382812 181.847656 153.546875 180.289062 151.871094 C 178.726562 150.195312 177.949219 147.796875 177.949219 144.675781 L 177.949219 129.503906 C 177.949219 126.382812 178.726562 123.984375 180.289062 122.308594 C 181.847656 120.632812 184.132812 119.792969 187.136719 119.792969 C 190.140625 119.792969 192.425781 120.632812 193.984375 122.308594 C 195.546875 123.984375 196.324219 126.382812 196.324219 129.503906 L 196.324219 144.675781 C 196.324219 147.796875 195.546875 150.195312 193.984375 151.871094 C 192.425781 153.546875 190.140625 154.382812 187.136719 154.382812 Z M 187.136719 148.921875 C 189.21875 148.921875 190.257812 147.652344 190.257812 145.109375 L 190.257812 129.070312 C 190.257812 126.527344 189.21875 125.253906 187.136719 125.253906 C 185.054688 125.253906 184.015625 126.527344 184.015625 129.070312 L 184.015625 145.109375 C 184.015625 147.652344 185.054688 148.921875 187.136719 148.921875 Z M 187.136719 148.921875 "/><path style=" stroke:none;fill-rule:nonzero;fill:#ffffff;fill-opacity:1;" d="M 72.042969 77.558594 C 71.714844 77.269531 71.378906 77.117188 71.035156 77.101562 C 70.691406 77.082031 70.335938 77.15625 69.964844 77.320312 C 69.59375 77.480469 69.214844 77.699219 68.832031 77.972656 C 68.449219 78.246094 68.050781 78.535156 67.640625 78.847656 C 67.089844 79.25 66.539062 79.617188 65.984375 79.9375 C 65.433594 80.261719 64.871094 80.476562 64.296875 80.589844 C 63.726562 80.703125 63.144531 80.679688 62.554688 80.523438 C 61.960938 80.367188 61.355469 80.015625 60.742188 79.472656 C 60.058594 78.875 59.574219 78.230469 59.277344 77.550781 C 58.984375 76.867188 58.851562 76.179688 58.878906 75.480469 C 58.90625 74.78125 59.082031 74.085938 59.402344 73.390625 C 59.722656 72.699219 60.183594 72.007812 60.789062 71.320312 C 61.394531 70.632812 62.070312 70.003906 62.816406 69.429688 C 63.5625 68.855469 64.265625 68.410156 64.917969 68.09375 L 66.9375 69.878906 C 66.085938 70.3125 65.332031 70.785156 64.671875 71.292969 C 64.011719 71.800781 63.445312 72.328125 62.972656 72.867188 C 62.285156 73.644531 61.898438 74.367188 61.8125 75.035156 C 61.722656 75.703125 61.960938 76.289062 62.527344 76.785156 C 62.855469 77.074219 63.183594 77.242188 63.519531 77.292969 C 63.851562 77.339844 64.191406 77.308594 64.539062 77.191406 C 64.886719 77.074219 65.238281 76.898438 65.59375 76.664062 C 65.949219 76.429688 66.3125 76.171875 66.691406 75.886719 C 67.285156 75.445312 67.878906 75.039062 68.46875 74.675781 C 69.058594 74.308594 69.65625 74.054688 70.265625 73.90625 C 70.875 73.757812 71.496094 73.765625 72.128906 73.921875 C 72.757812 74.078125 73.414062 74.453125 74.085938 75.046875 C 74.78125 75.660156 75.265625 76.316406 75.546875 77.019531 C 75.828125 77.726562 75.925781 78.457031 75.839844 79.222656 C 75.753906 79.984375 75.496094 80.773438 75.0625 81.589844 C 74.628906 82.40625 74.058594 83.214844 73.351562 84.015625 C 72.734375 84.71875 72.058594 85.34375 71.324219 85.898438 C 70.589844 86.457031 69.898438 86.847656 69.25 87.078125 L 67.257812 85.320312 C 68.09375 84.925781 68.839844 84.484375 69.496094 83.992188 C 70.15625 83.5 70.765625 82.929688 71.332031 82.289062 C 71.660156 81.917969 71.953125 81.523438 72.207031 81.109375 C 72.464844 80.695312 72.644531 80.28125 72.75 79.867188 C 72.851562 79.449219 72.855469 79.042969 72.753906 78.648438 C 72.652344 78.25 72.417969 77.886719 72.042969 77.558594 Z M 233.363281 76.378906 C 232.902344 78.472656 232.429688 80.261719 231.945312 81.75 L 231.996094 81.804688 C 233.574219 80.222656 234.738281 79.085938 235.492188 78.398438 L 241.226562 73.144531 L 243.351562 75.464844 L 230.6875 87.0625 L 228.457031 84.628906 L 230.507812 75.164062 C 230.855469 73.511719 231.335938 71.6875 231.957031 69.691406 L 231.90625 69.636719 C 230.421875 71.132812 229.253906 72.273438 228.402344 73.054688 L 222.667969 78.308594 L 220.542969 75.988281 L 233.207031 64.386719 L 235.4375 66.820312 Z M 86.242188 65.457031 L 81.203125 69.515625 L 82.640625 73.980469 L 80.03125 76.082031 L 74.566406 58.429688 L 76.804688 56.625 L 92.886719 65.726562 L 90.296875 67.8125 Z M 222.167969 65.863281 C 221.398438 66.921875 220.539062 67.78125 219.597656 68.445312 C 218.652344 69.105469 217.660156 69.546875 216.621094 69.761719 C 215.578125 69.976562 214.507812 69.957031 213.410156 69.695312 C 212.316406 69.4375 211.230469 68.917969 210.15625 68.136719 C 209.085938 67.355469 208.257812 66.480469 207.671875 65.515625 C 207.089844 64.550781 206.742188 63.539062 206.628906 62.484375 C 206.511719 61.425781 206.628906 60.347656 206.96875 59.246094 C 207.308594 58.144531 207.867188 57.066406 208.636719 56.007812 C 209.40625 54.949219 210.265625 54.085938 211.207031 53.425781 C 212.152344 52.761719 213.144531 52.324219 214.183594 52.105469 C 215.226562 51.890625 216.296875 51.914062 217.394531 52.171875 C 218.492188 52.433594 219.574219 52.953125 220.648438 53.734375 C 221.71875 54.515625 222.546875 55.386719 223.128906 56.351562 C 223.714844 57.316406 224.0625 58.328125 224.175781 59.386719 C 224.292969 60.441406 224.175781 61.519531 223.835938 62.621094 C 223.496094 63.722656 222.9375 64.804688 222.167969 65.863281 Z M 219.542969 63.949219 C 220.15625 63.105469 220.589844 62.292969 220.84375 61.507812 C 221.097656 60.722656 221.195312 59.988281 221.136719 59.296875 C 221.078125 58.609375 220.871094 57.976562 220.515625 57.402344 C 220.164062 56.824219 219.683594 56.320312 219.082031 55.882812 C 218.480469 55.441406 217.851562 55.144531 217.195312 54.984375 C 216.539062 54.824219 215.875 54.820312 215.199219 54.976562 C 214.527344 55.128906 213.855469 55.449219 213.1875 55.929688 C 212.519531 56.410156 211.878906 57.074219 211.261719 57.917969 C 210.648438 58.761719 210.214844 59.578125 209.960938 60.359375 C 209.707031 61.144531 209.609375 61.878906 209.671875 62.566406 C 209.734375 63.25 209.941406 63.882812 210.292969 64.460938 C 210.644531 65.039062 211.121094 65.550781 211.722656 65.988281 C 212.324219 66.425781 212.953125 66.722656 213.613281 66.878906 C 214.269531 67.035156 214.9375 67.039062 215.609375 66.886719 C 216.277344 66.738281 216.949219 66.421875 217.617188 65.9375 C 218.285156 65.457031 218.925781 64.792969 219.542969 63.949219 Z M 78.265625 60.757812 C 78.925781 62.53125 79.453125 64.039062 79.84375 65.273438 L 80.34375 66.832031 L 83.800781 64.046875 L 82.386719 63.222656 C 81.257812 62.566406 79.898438 61.734375 78.308594 60.722656 Z M 101.058594 61.070312 L 98.332031 62.636719 L 91.085938 50.027344 L 86.277344 52.789062 L 84.96875 50.503906 L 97.300781 43.421875 L 98.613281 45.703125 L 93.816406 48.460938 Z M 196.574219 59.410156 L 204.605469 44.226562 L 207.386719 45.699219 L 199.355469 60.882812 Z M 109.382812 56.945312 L 102.714844 41.117188 L 105.613281 39.894531 L 112.28125 55.722656 Z M 188.117188 55.578125 L 185.179688 54.460938 L 190.355469 40.867188 L 185.171875 38.894531 L 186.109375 36.4375 L 199.402344 41.5 L 198.464844 43.957031 L 193.292969 41.988281 Z M 124.125 46.65625 C 124.007812 46.238281 123.808594 45.925781 123.53125 45.726562 C 123.25 45.523438 122.910156 45.390625 122.511719 45.324219 C 122.109375 45.261719 121.671875 45.238281 121.203125 45.261719 C 120.734375 45.28125 120.242188 45.308594 119.730469 45.347656 C 119.046875 45.390625 118.386719 45.394531 117.746094 45.367188 C 117.109375 45.339844 116.515625 45.214844 115.976562 45 C 115.433594 44.78125 114.957031 44.449219 114.546875 43.996094 C 114.132812 43.542969 113.816406 42.921875 113.59375 42.128906 C 113.347656 41.257812 113.285156 40.453125 113.410156 39.722656 C 113.53125 38.988281 113.792969 38.335938 114.199219 37.765625 C 114.601562 37.195312 115.125 36.703125 115.769531 36.296875 C 116.414062 35.886719 117.179688 35.558594 118.058594 35.308594 C 118.941406 35.0625 119.851562 34.898438 120.789062 34.820312 C 121.726562 34.742188 122.558594 34.75 123.277344 34.839844 L 124.007812 37.433594 C 123.054688 37.339844 122.164062 37.324219 121.335938 37.394531 C 120.503906 37.464844 119.746094 37.59375 119.054688 37.789062 C 118.054688 38.070312 117.339844 38.46875 116.902344 38.984375 C 116.464844 39.496094 116.347656 40.117188 116.550781 40.84375 C 116.671875 41.261719 116.855469 41.582031 117.109375 41.804688 C 117.363281 42.027344 117.667969 42.183594 118.023438 42.273438 C 118.378906 42.367188 118.765625 42.410156 119.191406 42.40625 C 119.617188 42.402344 120.066406 42.382812 120.535156 42.347656 C 121.277344 42.296875 121.996094 42.28125 122.6875 42.292969 C 123.382812 42.308594 124.023438 42.417969 124.617188 42.625 C 125.207031 42.832031 125.726562 43.171875 126.171875 43.648438 C 126.617188 44.121094 126.960938 44.792969 127.203125 45.65625 C 127.453125 46.546875 127.507812 47.363281 127.359375 48.105469 C 127.214844 48.851562 126.898438 49.519531 126.414062 50.113281 C 125.925781 50.707031 125.28125 51.230469 124.472656 51.679688 C 123.667969 52.128906 122.75 52.5 121.71875 52.789062 C 120.820312 53.042969 119.914062 53.203125 118.992188 53.273438 C 118.074219 53.339844 117.28125 53.292969 116.613281 53.136719 L 115.894531 50.578125 C 116.808594 50.703125 117.675781 50.734375 118.496094 50.675781 C 119.316406 50.621094 120.136719 50.476562 120.960938 50.242188 C 121.4375 50.109375 121.898438 49.9375 122.335938 49.730469 C 122.777344 49.519531 123.152344 49.269531 123.464844 48.976562 C 123.777344 48.683594 124 48.34375 124.132812 47.957031 C 124.261719 47.566406 124.257812 47.136719 124.125 46.65625 Z M 176.46875 36.433594 C 175.632812 36.261719 174.828125 36.242188 174.0625 36.375 C 173.296875 36.507812 172.609375 36.785156 171.992188 37.210938 C 171.378906 37.632812 170.847656 38.207031 170.40625 38.921875 C 169.960938 39.640625 169.636719 40.496094 169.433594 41.496094 C 169.230469 42.484375 169.183594 43.378906 169.289062 44.183594 C 169.398438 44.988281 169.640625 45.691406 170.023438 46.292969 C 170.410156 46.894531 170.925781 47.398438 171.570312 47.796875 C 172.21875 48.195312 172.988281 48.484375 173.875 48.667969 C 174.515625 48.796875 175.175781 48.878906 175.855469 48.914062 C 176.539062 48.949219 177.191406 48.929688 177.808594 48.855469 L 177.265625 51.507812 C 176.644531 51.554688 175.984375 51.558594 175.285156 51.515625 C 174.585938 51.472656 173.871094 51.378906 173.144531 51.230469 C 171.71875 50.9375 170.507812 50.476562 169.507812 49.847656 C 168.507812 49.222656 167.722656 48.464844 167.148438 47.574219 C 166.574219 46.683594 166.214844 45.683594 166.058594 44.570312 C 165.90625 43.460938 165.957031 42.28125 166.214844 41.03125 C 166.476562 39.75 166.914062 38.597656 167.527344 37.582031 C 168.144531 36.5625 168.898438 35.726562 169.796875 35.070312 C 170.695312 34.414062 171.742188 33.96875 172.941406 33.734375 C 174.136719 33.5 175.433594 33.519531 176.824219 33.796875 C 177.539062 33.941406 178.203125 34.128906 178.820312 34.355469 C 179.4375 34.582031 179.984375 34.832031 180.460938 35.113281 L 179.925781 37.730469 C 179.296875 37.382812 178.703125 37.109375 178.140625 36.90625 C 177.578125 36.707031 177.023438 36.546875 176.46875 36.433594 Z M 136.445312 49.292969 L 133.320312 49.648438 L 131.378906 32.582031 L 142.246094 31.347656 L 142.542969 33.960938 L 134.800781 34.839844 L 135.304688 39.253906 L 141.921875 38.503906 L 142.21875 41.117188 L 135.601562 41.871094 Z M 156.964844 44.148438 L 150.5 43.949219 L 148.683594 48.273438 L 145.332031 48.167969 L 152.675781 31.210938 L 155.550781 31.300781 L 161.832031 48.679688 L 158.511719 48.574219 Z M 153.972656 35.386719 C 153.316406 37.164062 152.738281 38.648438 152.226562 39.839844 L 151.59375 41.347656 L 156.03125 41.488281 L 155.492188 39.941406 C 155.066406 38.710938 154.574219 37.191406 154.027344 35.386719 Z M 153.972656 35.386719 "/><path style=" stroke:none;fill-rule:evenodd;fill:#ffffff;fill-opacity:1;" d="M 150.378906 77.820312 L 152.621094 84.722656 L 159.882812 84.722656 L 154.007812 88.988281 L 156.25 95.890625 L 150.378906 91.625 L 144.507812 95.890625 L 146.75 88.988281 L 140.878906 84.722656 L 148.136719 84.722656 Z M 174.597656 82.90625 L 171.894531 87.070312 L 167.097656 85.789062 L 170.222656 89.644531 L 167.515625 93.8125 L 172.152344 92.03125 L 175.277344 95.890625 L 175.019531 90.933594 L 179.65625 89.152344 L 174.859375 87.867188 Z M 126.160156 82.90625 L 128.867188 87.070312 L 133.664062 85.789062 L 130.539062 89.644531 L 133.242188 93.8125 L 128.605469 92.03125 L 125.480469 95.890625 L 125.742188 90.933594 L 121.105469 89.152344 L 125.902344 87.867188 Z M 126.160156 82.90625 "/><path style=" stroke:none;fill-rule:evenodd;fill:#ffffff;fill-opacity:1;" d="M 150.378906 206.113281 L 152.621094 213.015625 L 159.882812 213.015625 L 154.007812 217.285156 L 156.25 224.1875 L 150.378906 219.921875 L 144.507812 224.1875 L 146.75 217.285156 L 140.878906 213.015625 L 148.136719 213.015625 Z M 128.605469 207.839844 L 128.867188 212.796875 L 133.664062 214.082031 L 129.027344 215.863281 L 129.285156 220.820312 L 126.160156 216.960938 L 121.523438 218.742188 L 124.230469 214.578125 L 121.105469 210.71875 L 125.902344 212.003906 Z M 172.152344 207.839844 L 171.894531 212.796875 L 167.097656 214.082031 L 171.734375 215.863281 L 171.472656 220.820312 L 174.597656 216.960938 L 179.234375 218.742188 L 176.53125 214.578125 L 179.65625 210.71875 L 174.859375 212.003906 Z M 172.152344 207.839844 "/><path style=" stroke:none;fill-rule:nonzero;fill:#ffffff;fill-opacity:1;" d="M 135.808594 260.636719 C 134.789062 258.75 133.976562 257.085938 133.371094 255.644531 L 133.296875 255.632812 C 133.136719 257.863281 132.996094 259.484375 132.875 260.496094 L 131.964844 268.222656 L 128.839844 267.855469 L 130.855469 250.796875 L 134.132812 251.183594 L 138.761719 259.691406 C 139.578125 261.167969 140.40625 262.863281 141.238281 264.78125 L 141.316406 264.789062 C 141.460938 262.6875 141.601562 261.0625 141.734375 259.914062 L 142.648438 252.1875 L 145.769531 252.558594 L 143.757812 269.613281 L 140.480469 269.226562 Z M 153.496094 256.765625 L 159.953125 256.382812 L 161.375 251.914062 L 164.71875 251.71875 L 158.929688 269.265625 L 156.058594 269.433594 L 148.238281 252.691406 L 151.558594 252.496094 Z M 169.464844 262.957031 C 169.203125 261.789062 169.308594 260.722656 169.773438 259.765625 C 170.242188 258.808594 171.105469 257.980469 172.375 257.289062 L 172.363281 257.238281 L 165.84375 251.453125 L 169.527344 250.636719 L 175.53125 256.113281 L 177.636719 255.644531 L 176.195312 249.15625 L 179.265625 248.472656 L 182.988281 265.242188 L 177.886719 266.375 C 177.042969 266.558594 176.25 266.6875 175.5 266.753906 C 174.753906 266.816406 174.097656 266.8125 173.535156 266.734375 C 172.46875 266.578125 171.582031 266.1875 170.886719 265.566406 C 170.1875 264.945312 169.710938 264.078125 169.464844 262.957031 Z M 120.121094 247.828125 L 123.140625 248.714844 L 119.042969 262.667969 L 124.363281 264.230469 L 123.625 266.753906 L 109.976562 262.75 L 110.71875 260.222656 L 116.027344 261.78125 Z M 157.261719 265.222656 C 157.753906 263.394531 158.203125 261.863281 158.601562 260.632812 L 159.097656 259.070312 L 154.664062 259.332031 L 155.339844 260.824219 C 155.878906 262.011719 156.5 263.480469 157.210938 265.226562 Z M 176.691406 258.550781 C 175.988281 258.707031 175.402344 258.871094 174.925781 259.042969 C 174.449219 259.214844 174.058594 259.398438 173.753906 259.597656 C 173.1875 259.96875 172.832031 260.382812 172.683594 260.84375 C 172.535156 261.300781 172.519531 261.792969 172.636719 262.320312 C 172.734375 262.769531 172.917969 263.148438 173.183594 263.453125 C 173.449219 263.757812 173.828125 263.960938 174.324219 264.0625 C 174.644531 264.128906 175.035156 264.144531 175.492188 264.109375 C 175.949219 264.074219 176.503906 263.984375 177.15625 263.839844 L 179.347656 263.351562 L 178.207031 258.214844 Z M 187.953125 249.980469 L 193.929688 247.507812 L 193.8125 242.820312 L 196.910156 241.539062 L 197.171875 260.015625 L 194.511719 261.117188 L 181.652344 247.847656 L 184.726562 246.574219 Z M 108.578125 246.355469 L 100.925781 242.78125 L 102.039062 240.398438 L 112.542969 245.304688 L 105.269531 260.863281 L 95.1875 256.152344 L 96.300781 253.769531 L 103.535156 257.148438 L 105.414062 253.125 L 99.207031 250.222656 L 100.320312 247.839844 L 106.53125 250.742188 Z M 194.273438 256.742188 C 194.144531 254.851562 194.066406 253.257812 194.039062 251.964844 L 193.996094 250.328125 L 189.894531 252.023438 L 191.019531 253.210938 C 191.917969 254.160156 192.984375 255.339844 194.226562 256.761719 Z M 204.945312 236.179688 C 205.703125 235.695312 206.429688 235.335938 207.132812 235.097656 C 207.832031 234.859375 208.5 234.730469 209.140625 234.714844 C 209.78125 234.699219 210.390625 234.789062 210.96875 234.980469 C 211.546875 235.175781 212.097656 235.460938 212.613281 235.84375 C 213.03125 236.144531 213.429688 236.523438 213.808594 236.96875 C 214.191406 237.414062 214.574219 237.941406 214.960938 238.546875 L 220.398438 247.078125 L 217.746094 248.769531 L 212.460938 240.476562 C 211.808594 239.453125 211.175781 238.730469 210.5625 238.308594 C 209.878906 237.839844 209.183594 237.632812 208.472656 237.683594 C 207.765625 237.734375 207.054688 237.984375 206.339844 238.441406 C 205.625 238.894531 205.09375 239.433594 204.75 240.054688 C 204.402344 240.675781 204.296875 241.394531 204.433594 242.210938 C 204.558594 242.945312 204.945312 243.824219 205.597656 244.847656 L 210.882812 253.144531 L 208.226562 254.832031 L 202.792969 246.300781 C 202.40625 245.695312 202.089844 245.125 201.847656 244.589844 C 201.601562 244.054688 201.433594 243.535156 201.332031 243.03125 C 201.207031 242.402344 201.179688 241.78125 201.253906 241.171875 C 201.324219 240.5625 201.511719 239.96875 201.804688 239.386719 C 202.101562 238.808594 202.507812 238.25 203.027344 237.710938 C 203.546875 237.171875 204.1875 236.664062 204.945312 236.179688 Z M 95.019531 239.207031 L 87.972656 234.550781 L 89.421875 232.355469 L 99.09375 238.746094 L 89.625 253.078125 L 80.339844 246.941406 L 81.789062 244.746094 L 88.453125 249.148438 L 90.902344 245.441406 L 85.179688 241.664062 L 86.632812 239.46875 L 92.351562 243.246094 Z M 86.703125 230.390625 L 75.0625 243.015625 L 71.71875 239.9375 C 71.425781 239.664062 71.132812 239.378906 70.84375 239.078125 C 70.558594 238.777344 70.285156 238.476562 70.03125 238.167969 C 69.777344 237.867188 69.539062 237.5625 69.316406 237.257812 C 69.097656 236.957031 68.90625 236.664062 68.75 236.378906 C 68.273438 235.542969 67.945312 234.707031 67.765625 233.863281 C 67.585938 233.023438 67.550781 232.195312 67.660156 231.375 C 67.769531 230.554688 68.019531 229.757812 68.40625 228.980469 C 68.789062 228.199219 69.3125 227.453125 69.976562 226.734375 C 70.601562 226.054688 71.265625 225.488281 71.964844 225.03125 C 72.664062 224.578125 73.394531 224.246094 74.152344 224.039062 C 74.914062 223.832031 75.703125 223.757812 76.515625 223.816406 C 77.328125 223.875 78.167969 224.078125 79.03125 224.433594 C 79.75 224.722656 80.496094 225.132812 81.269531 225.660156 C 82.042969 226.183594 82.851562 226.839844 83.703125 227.621094 Z M 220.972656 232.941406 L 223.800781 230.324219 L 225.585938 232.257812 L 220.449219 237.007812 L 214.566406 230.644531 C 214.691406 230.398438 214.867188 230.105469 215.089844 229.757812 C 215.3125 229.414062 215.574219 229.042969 215.882812 228.652344 C 216.1875 228.257812 216.515625 227.863281 216.863281 227.472656 C 217.214844 227.082031 217.574219 226.710938 217.953125 226.363281 C 219.085938 225.316406 220.214844 224.554688 221.339844 224.078125 C 222.46875 223.601562 223.566406 223.382812 224.640625 223.414062 C 225.714844 223.449219 226.746094 223.714844 227.730469 224.222656 C 228.714844 224.726562 229.636719 225.441406 230.488281 226.367188 C 231.09375 227.019531 231.59375 227.710938 231.996094 228.441406 C 232.398438 229.171875 232.6875 229.921875 232.871094 230.691406 C 233.050781 231.464844 233.128906 232.242188 233.097656 233.027344 C 233.066406 233.8125 232.921875 234.59375 232.664062 235.367188 C 232.40625 236.140625 232.035156 236.894531 231.550781 237.625 C 231.070312 238.359375 230.46875 239.054688 229.753906 239.71875 C 229.117188 240.304688 228.472656 240.816406 227.816406 241.253906 C 227.160156 241.691406 226.589844 242.011719 226.101562 242.21875 L 224.289062 240.253906 C 224.925781 239.960938 225.53125 239.621094 226.105469 239.242188 C 226.679688 238.863281 227.222656 238.4375 227.730469 237.964844 C 228.417969 237.332031 228.964844 236.640625 229.371094 235.882812 C 229.78125 235.125 230.019531 234.347656 230.085938 233.542969 C 230.15625 232.742188 230.046875 231.933594 229.757812 231.117188 C 229.46875 230.296875 228.96875 229.507812 228.261719 228.738281 C 226.878906 227.253906 225.457031 226.5 223.992188 226.46875 C 222.53125 226.4375 221.09375 227.078125 219.671875 228.390625 C 219.40625 228.636719 219.148438 228.902344 218.890625 229.191406 C 218.632812 229.480469 218.417969 229.746094 218.246094 229.988281 Z M 81.652344 229.3125 C 80.300781 228.066406 79.074219 227.277344 77.96875 226.945312 C 76.988281 226.660156 76.03125 226.671875 75.101562 226.988281 C 74.167969 227.304688 73.246094 227.957031 72.335938 228.945312 C 71.859375 229.460938 71.488281 229.980469 71.21875 230.5 C 70.949219 231.019531 70.773438 231.539062 70.6875 232.0625 C 70.601562 232.582031 70.605469 233.101562 70.695312 233.613281 C 70.785156 234.128906 70.953125 234.636719 71.199219 235.144531 C 71.429688 235.613281 71.734375 236.082031 72.117188 236.550781 C 72.5 237.019531 72.964844 237.503906 73.511719 238.011719 L 74.53125 238.949219 L 82.609375 230.191406 Z M 81.652344 229.3125 "/><g clip-rule="nonzero" clip-path="url(#0405d6e493)"><g clip-rule="evenodd" clip-path="url(#4229fc3c87)"><path style=" stroke:none;fill-rule:nonzero;fill:url(#08609b0e46);" d="M 65.238281 96.578125 L 21.757812 96.578125 L 21.757812 224.792969 L 65.238281 224.792969 Z M 65.238281 96.578125 "/></g></g><g clip-rule="nonzero" clip-path="url(#26104467a8)"><g clip-rule="evenodd" clip-path="url(#284bdb3526)"><path style=" stroke:none;fill-rule:nonzero;fill:url(#9dce58259a);" d="M 279 96.578125 L 235.519531 96.578125 L 235.519531 224.792969 L 279 224.792969 Z M 279 96.578125 "/></g></g></g></svg>