<svg xmlns="http://www.w3.org/2000/svg" xmlns:xlink="http://www.w3.org/1999/xlink" width="126" zoomAndPan="magnify" viewBox="0 0 94.5 99.749997" height="133" preserveAspectRatio="xMidYMid meet" version="1.2"><g id="57cd6e783d"><path style=" stroke:none;fill-rule:evenodd;fill:#f9dbbd;fill-opacity:1;" d="M 18.492188 29.09375 C 4.460938 46.578125 6.878906 84.761719 36.449219 90.082031 C 60.6875 94.445312 80.027344 87.351562 83.222656 60.875 C 89.140625 11.828125 38.910156 5.453125 18.492188 29.09375 Z M 18.492188 29.09375 "/><path style=" stroke:none;fill-rule:evenodd;fill:#2d140a;fill-opacity:1;" d="M 15.914062 26.132812 C 38.40625 0.132812 93.175781 7.945312 86.785156 60.851562 C 83.324219 89.539062 61.78125 98.953125 35.332031 94.195312 C 3.167969 88.398438 0.0703125 45.863281 15.914062 26.132812 Z M 18.535156 28.972656 C 4.503906 46.457031 6.929688 84.640625 36.492188 89.960938 C 60.730469 94.320312 80.074219 87.230469 83.265625 60.75 C 89.183594 11.707031 38.953125 5.328125 18.535156 28.972656 Z M 18.535156 28.972656 "/><path style="fill:none;stroke-width:17.59;stroke-linecap:round;stroke-linejoin:round;stroke:#2d140a;stroke-opacity:1;stroke-miterlimit:4;" d="M 184.682276 340.750257 C 195.039082 322.841613 208.318547 333.394571 216.870758 340.809102 C 221.990315 345.222514 232.700194 341.809476 238.212055 335.807236 C 244.665443 328.804623 249.863461 327.000028 254.316103 327.725789 C 264.319836 329.373462 274.186263 354.97125 294.605647 330.726909 C 298.607141 325.940809 313.455819 323.528144 325.989908 341.848706 " transform="matrix(0.199144,0,0,0.199144,-2.829224,3.762585)"/><path style=" stroke:none;fill-rule:evenodd;fill:#1fc3f3;fill-opacity:1;" d="M 76.507812 17.589844 C 76.507812 17.589844 82.605469 25.847656 82.882812 31.84375 C 83.160156 37.839844 73.144531 39.050781 71.347656 33.5 C 69.550781 27.953125 76.507812 17.589844 76.507812 17.589844 Z M 76.507812 17.589844 "/><path style=" stroke:none;fill-rule:evenodd;fill:#2d140a;fill-opacity:1;" d="M 78.878906 15.949219 C 79.46875 16.757812 85.453125 25.15625 85.765625 31.710938 C 85.898438 34.628906 84.535156 36.84375 82.480469 38.265625 C 81.308594 39.066406 80.019531 39.578125 78.621094 39.808594 C 77.230469 40.039062 75.851562 39.992188 74.484375 39.660156 C 71.851562 39.011719 69.546875 37.289062 68.601562 34.378906 C 66.371094 27.492188 74.078125 16.03125 74.097656 15.996094 C 74.308594 15.679688 74.574219 15.410156 74.890625 15.199219 C 75.207031 14.984375 75.554688 14.839844 75.929688 14.761719 C 76.304688 14.683594 76.679688 14.683594 77.054688 14.757812 C 77.433594 14.828125 77.78125 14.972656 78.097656 15.183594 C 78.410156 15.386719 78.667969 15.644531 78.878906 15.949219 Z M 76.507812 17.589844 C 76.507812 17.589844 69.550781 27.945312 71.347656 33.496094 C 73.144531 39.042969 83.160156 37.828125 82.882812 31.84375 C 82.605469 25.859375 76.507812 17.589844 76.507812 17.589844 Z M 76.507812 17.589844 "/><path style=" stroke:none;fill-rule:evenodd;fill:#ffffff;fill-opacity:1;" d="M 80.828125 27.804688 C 81.261719 29.046875 81.886719 31.363281 81.625 32.757812 C 81.25 34.8125 78.65625 34.523438 79.375 30.367188 C 79.722656 28.351562 78.5 25.648438 79.386719 25.460938 C 79.867188 25.359375 80.765625 27.625 80.828125 27.804688 Z M 80.828125 27.804688 "/><path style="fill:none;stroke-width:14.07;stroke-linecap:round;stroke-linejoin:round;stroke:#2d140a;stroke-opacity:1;stroke-miterlimit:4;" d="M 176.286986 168.391822 C 172.50126 174.295986 167.734775 179.239007 162.007148 183.240501 C 156.259905 187.261609 149.983053 190.027347 143.156976 191.55733 " transform="matrix(0.199144,0,0,0.199144,-2.829224,3.762585)"/><path style="fill:none;stroke-width:14.07;stroke-linecap:round;stroke-linejoin:round;stroke:#2d140a;stroke-opacity:1;stroke-miterlimit:4;" d="M 321.007656 168.391822 C 324.793383 174.276371 329.559867 179.239007 335.287495 183.240501 C 341.034737 187.241994 347.311589 190.027347 354.137666 191.55733 " transform="matrix(0.199144,0,0,0.199144,-2.829224,3.762585)"/><path style=" stroke:none;fill-rule:evenodd;fill:#eaa5ab;fill-opacity:1;" d="M 26.140625 60.507812 C 28.503906 60.945312 29.960938 62.484375 30.277344 63.753906 C 31.144531 67.222656 19.574219 65.847656 18.851562 65.308594 C 15.554688 62.871094 21.984375 59.722656 26.140625 60.507812 Z M 26.140625 60.507812 "/><path style=" stroke:none;fill-rule:evenodd;fill:#2d140a;fill-opacity:1;" d="M 22.078125 60.347656 C 22.140625 60.203125 22.246094 60.09375 22.394531 60.027344 C 22.539062 59.960938 22.6875 59.949219 22.84375 60 C 22.996094 60.046875 23.113281 60.140625 23.195312 60.277344 C 23.277344 60.414062 23.304688 60.5625 23.273438 60.722656 L 22.089844 64.480469 C 22.027344 64.628906 21.921875 64.738281 21.773438 64.804688 C 21.628906 64.871094 21.476562 64.882812 21.324219 64.835938 C 21.167969 64.785156 21.050781 64.691406 20.96875 64.554688 C 20.886719 64.414062 20.863281 64.265625 20.894531 64.105469 Z M 22.078125 60.347656 "/><path style=" stroke:none;fill-rule:evenodd;fill:#2d140a;fill-opacity:1;" d="M 25.925781 60.105469 C 25.996094 59.941406 26.109375 59.828125 26.273438 59.761719 C 26.4375 59.699219 26.601562 59.703125 26.761719 59.773438 C 26.921875 59.847656 27.035156 59.964844 27.09375 60.128906 C 27.15625 60.296875 27.148438 60.457031 27.074219 60.617188 L 25.121094 64.960938 C 25.046875 65.113281 24.929688 65.21875 24.769531 65.277344 C 24.613281 65.335938 24.453125 65.332031 24.296875 65.261719 C 24.144531 65.191406 24.035156 65.078125 23.972656 64.921875 C 23.910156 64.761719 23.910156 64.605469 23.976562 64.449219 Z M 25.925781 60.105469 "/><path style=" stroke:none;fill-rule:evenodd;fill:#eaa5ab;fill-opacity:1;" d="M 72.050781 60.507812 C 74.410156 60.945312 75.871094 62.484375 76.183594 63.753906 C 77.050781 67.222656 65.484375 65.847656 64.757812 65.308594 C 61.460938 62.871094 67.894531 59.722656 72.050781 60.507812 Z M 72.050781 60.507812 "/><path style=" stroke:none;fill-rule:evenodd;fill:#2d140a;fill-opacity:1;" d="M 67.984375 60.347656 C 68.027344 60.171875 68.125 60.039062 68.285156 59.949219 C 68.441406 59.859375 68.609375 59.839844 68.78125 59.894531 C 68.957031 59.949219 69.082031 60.058594 69.160156 60.222656 C 69.238281 60.386719 69.246094 60.550781 69.179688 60.722656 L 67.996094 64.480469 C 67.953125 64.65625 67.851562 64.789062 67.695312 64.878906 C 67.539062 64.96875 67.371094 64.984375 67.199219 64.929688 C 67.027344 64.875 66.902344 64.769531 66.824219 64.605469 C 66.742188 64.441406 66.738281 64.277344 66.800781 64.105469 Z M 67.984375 60.347656 "/><path style=" stroke:none;fill-rule:evenodd;fill:#2d140a;fill-opacity:1;" d="M 71.832031 60.105469 C 71.902344 59.945312 72.019531 59.835938 72.179688 59.773438 C 72.34375 59.710938 72.503906 59.714844 72.660156 59.785156 C 72.820312 59.859375 72.929688 59.972656 72.992188 60.136719 C 73.054688 60.296875 73.050781 60.457031 72.980469 60.617188 L 71.027344 64.960938 C 70.957031 65.117188 70.839844 65.226562 70.679688 65.289062 C 70.515625 65.351562 70.355469 65.347656 70.199219 65.277344 C 70.039062 65.207031 69.929688 65.089844 69.867188 64.929688 C 69.804688 64.765625 69.808594 64.605469 69.878906 64.449219 Z M 71.832031 60.105469 "/><path style=" stroke:none;fill-rule:evenodd;fill:#2d140a;fill-opacity:1;" d="M 34.636719 43.675781 C 38.449219 43.785156 40.085938 46.800781 39.988281 51.492188 C 39.894531 56.183594 38.574219 60.007812 34.0625 59.96875 C 29.550781 59.929688 28.285156 55.605469 28.386719 50.910156 C 28.484375 46.21875 30.828125 43.5625 34.636719 43.675781 Z M 34.636719 43.675781 "/><path style=" stroke:none;fill-rule:evenodd;fill:#f9dbbd;fill-opacity:1;" d="M 33.949219 45.363281 C 36.019531 45.792969 36.621094 47.59375 36.117188 50.144531 C 35.613281 52.691406 34.523438 54.652344 32.070312 54.199219 C 29.617188 53.742188 29.339844 51.261719 29.84375 48.710938 C 30.347656 46.160156 31.878906 44.9375 33.949219 45.363281 Z M 33.949219 45.363281 "/><path style=" stroke:none;fill-rule:evenodd;fill:#f9dbbd;fill-opacity:1;" d="M 36.84375 54.09375 C 37.464844 54.269531 37.605469 54.835938 37.394531 55.601562 C 37.183594 56.367188 36.808594 56.941406 36.070312 56.746094 C 35.328125 56.550781 35.304688 55.792969 35.515625 55.023438 C 35.726562 54.257812 36.21875 53.917969 36.84375 54.09375 Z M 36.84375 54.09375 "/><path style=" stroke:none;fill-rule:evenodd;fill:#2d140a;fill-opacity:1;" d="M 58.179688 43.675781 C 61.992188 43.785156 63.628906 46.800781 63.53125 51.492188 C 63.4375 56.183594 62.117188 60.007812 57.605469 59.96875 C 53.09375 59.929688 51.828125 55.605469 51.929688 50.910156 C 52.027344 46.21875 54.367188 43.5625 58.179688 43.675781 Z M 58.179688 43.675781 "/><path style=" stroke:none;fill-rule:evenodd;fill:#f9dbbd;fill-opacity:1;" d="M 57.492188 45.363281 C 59.5625 45.792969 60.164062 47.59375 59.660156 50.144531 C 59.15625 52.691406 58.066406 54.652344 55.613281 54.199219 C 53.160156 53.742188 52.882812 51.261719 53.386719 48.710938 C 53.890625 46.160156 55.421875 44.9375 57.492188 45.363281 Z M 57.492188 45.363281 "/><path style=" stroke:none;fill-rule:evenodd;fill:#f9dbbd;fill-opacity:1;" d="M 60.445312 54.125 C 61.042969 54.324219 61.164062 54.894531 60.917969 55.644531 C 60.671875 56.390625 60.273438 56.941406 59.554688 56.714844 C 58.832031 56.488281 58.839844 55.730469 59.085938 54.980469 C 59.328125 54.230469 59.835938 53.921875 60.445312 54.125 Z M 60.445312 54.125 "/></g></svg>