<svg xmlns="http://www.w3.org/2000/svg" xmlns:xlink="http://www.w3.org/1999/xlink" width="128" zoomAndPan="magnify" viewBox="0 0 96 99.749996" height="133" preserveAspectRatio="xMidYMid meet" version="1.2"><g id="525dd08085"><path style=" stroke:none;fill-rule:nonzero;fill:#f9dbbd;fill-opacity:1;" d="M 92.40625 64.519531 C 89.621094 65.765625 86.820312 66.984375 84.003906 68.175781 C 86.382812 69.773438 88.753906 71.378906 91.113281 73 C 93.578125 74.695312 91.234375 78.753906 88.75 77.035156 C 86.550781 75.523438 84.332031 74.023438 82.113281 72.53125 C 82.082031 74.546875 82.089844 76.558594 82.136719 78.574219 C 82.214844 81.589844 77.535156 81.578125 77.457031 78.574219 C 77.378906 75.566406 77.398438 72.507812 77.527344 69.476562 C 75.03125 67.839844 72.527344 66.214844 70.015625 64.589844 C 69.917969 66.75 69.894531 68.90625 69.945312 71.066406 C 70.019531 74.082031 65.339844 74.074219 65.265625 71.066406 C 65.1875 67.945312 65.265625 64.824219 65.503906 61.710938 C 60.316406 58.421875 55.109375 55.179688 49.882812 51.980469 C 49.496094 56.011719 49.117188 60.042969 48.738281 64.074219 C 49.25 64.730469 49.714844 65.414062 50.136719 66.128906 C 51.917969 68.96875 53.910156 71.652344 56.113281 74.179688 C 58.09375 76.4375 54.792969 79.753906 52.808594 77.488281 C 51.375 75.859375 50.015625 74.179688 48.738281 72.429688 C 48.5 72.109375 48.277344 71.757812 48.058594 71.398438 C 47.785156 74.257812 47.515625 77.117188 47.246094 79.980469 C 48.289062 80.980469 49.242188 82.199219 50.125 83.136719 C 51.929688 85.082031 53.664062 87.027344 55.308594 89.101562 C 57.171875 91.429688 53.878906 94.765625 52 92.410156 C 50.609375 90.664062 49.148438 88.972656 47.621094 87.335938 C 47.308594 87 46.980469 86.601562 46.648438 86.183594 L 45.730469 95.910156 C 45.445312 98.894531 40.761719 98.914062 41.046875 95.910156 L 41.9375 86.484375 C 41.777344 86.667969 41.613281 86.851562 41.453125 87.023438 C 40.023438 88.523438 38.59375 90.023438 37.167969 91.527344 C 35.085938 93.71875 31.78125 90.40625 33.859375 88.21875 C 36.582031 85.355469 39.382812 81.375 42.644531 79.03125 C 42.933594 76.023438 43.21875 73.019531 43.5 70.011719 C 41.4375 72.261719 39.515625 74.75 37.566406 76.917969 C 35.542969 79.160156 32.242188 75.839844 34.253906 73.605469 L 41.304688 65.785156 C 42.175781 64.8125 43.046875 63.636719 44.164062 63.003906 C 44.511719 59.3125 44.859375 55.621094 45.207031 51.933594 C 40.160156 54.527344 35.097656 57.09375 30.023438 59.628906 C 29.761719 60.742188 29.085938 61.859375 28.65625 62.796875 C 27.414062 65.53125 26.175781 68.261719 24.941406 70.988281 C 23.695312 73.734375 19.664062 71.347656 20.898438 68.628906 C 21.753906 66.742188 22.90625 64.738281 23.878906 62.695312 C 22.148438 63.550781 20.417969 64.410156 18.679688 65.261719 C 17.617188 68.933594 16.710938 72.644531 15.964844 76.394531 C 15.382812 79.351562 10.871094 78.089844 11.449219 75.152344 C 11.9375 72.75 12.476562 70.371094 13.082031 68 C 10.453125 69.300781 7.824219 70.578125 5.1875 71.835938 C 2.484375 73.132812 0.113281 69.097656 2.824219 67.792969 C 5.535156 66.488281 8.101562 65.238281 10.734375 63.953125 L 4.511719 61.75 C 1.6875 60.777344 2.914062 56.234375 5.757812 57.234375 L 16.613281 61.066406 C 18.597656 60.089844 20.578125 59.117188 22.550781 58.144531 C 21.984375 57.878906 21.429688 57.617188 20.933594 57.34375 L 15.738281 54.445312 C 13.09375 52.984375 15.460938 48.941406 18.097656 50.402344 L 25.394531 54.4375 C 26.019531 54.789062 26.851562 55.148438 27.65625 55.585938 C 32.78125 53.019531 37.902344 50.421875 43.007812 47.804688 C 39.042969 45.417969 35.066406 43.050781 31.085938 40.699219 C 30.113281 41.332031 29.027344 41.839844 28.167969 42.339844 C 25.664062 43.800781 23.125 45.203125 20.558594 46.546875 C 17.882812 47.953125 15.515625 43.910156 18.167969 42.503906 C 20 41.53125 21.824219 40.558594 23.621094 39.539062 C 24.257812 39.175781 25.570312 38.65625 26.664062 38.113281 C 24.433594 36.816406 22.207031 35.515625 19.972656 34.21875 C 17.683594 34.75 15.679688 36.375 13.546875 37.347656 C 11.3125 38.355469 8.992188 39.078125 6.582031 39.523438 C 3.632812 40.082031 2.382812 35.566406 5.339844 35.007812 C 8.464844 34.402344 11.410156 33.316406 14.179688 31.75 L 15.011719 31.292969 L 6.007812 26.054688 C 3.402344 24.542969 5.761719 20.496094 8.371094 22.015625 L 16.933594 26.992188 C 15.621094 24.039062 14.308594 21.085938 12.996094 18.125 C 11.785156 15.398438 15.820312 13.019531 17.039062 15.761719 C 19.21875 20.671875 21.398438 25.578125 23.574219 30.480469 C 23.640625 30.636719 23.691406 30.800781 23.734375 30.964844 L 27.683594 33.28125 L 27.320312 31.820312 L 26.007812 26.5625 C 25.277344 23.644531 29.792969 22.398438 30.519531 25.316406 C 31.203125 28.042969 31.882812 30.773438 32.558594 33.5 C 32.871094 34.515625 33.117188 35.546875 33.292969 36.59375 C 37.527344 39.09375 41.742188 41.613281 45.941406 44.144531 C 46.390625 39.433594 46.835938 34.730469 47.28125 30.035156 C 46.484375 29.460938 45.742188 28.796875 45.042969 28.242188 C 43.019531 26.632812 41.085938 24.921875 39.242188 23.109375 C 37.078125 21.007812 40.390625 17.703125 42.558594 19.800781 C 43.835938 21.039062 45.144531 22.234375 46.511719 23.398438 C 46.886719 23.710938 47.324219 24.140625 47.796875 24.578125 C 48.039062 21.984375 48.285156 19.402344 48.53125 16.832031 C 47.660156 16.074219 46.867188 15.191406 46.210938 14.550781 C 44.269531 12.628906 42.484375 10.574219 40.859375 8.382812 C 39.035156 5.980469 43.101562 3.652344 44.898438 6.019531 C 46.1875 7.773438 47.574219 9.449219 49.066406 11.039062 C 49.320312 8.390625 49.570312 5.746094 49.820312 3.105469 C 50.101562 0.121094 54.78125 0.101562 54.5 3.105469 C 54.203125 6.253906 53.902344 9.402344 53.605469 12.546875 C 56.039062 10.984375 58.304688 8.585938 60.125 6.761719 C 62.257812 4.625 65.566406 7.933594 63.4375 10.070312 C 61.503906 12.007812 59.4375 13.792969 57.234375 15.421875 C 56.105469 16.25 54.613281 17.5625 53.078125 18.117188 L 52.316406 26.257812 C 54.71875 25.644531 57.710938 23.5625 59.34375 22.570312 C 61.929688 21.003906 64.277344 25.050781 61.703125 26.609375 C 59.34375 28.070312 55.230469 30.664062 51.855469 31.183594 C 51.453125 35.402344 51.054688 39.617188 50.652344 43.832031 C 54.988281 41.578125 59.3125 39.308594 63.625 37.023438 C 63.820312 35.5625 64.308594 34.03125 64.542969 32.910156 C 65.101562 30.253906 65.800781 27.636719 66.589844 25.042969 C 67.46875 22.164062 71.984375 23.398438 71.105469 26.285156 C 70.375 28.6875 69.363281 31.515625 68.789062 34.285156 C 71.085938 33.058594 73.378906 31.824219 75.667969 30.585938 C 75.882812 29.351562 76.179688 28.136719 76.546875 26.9375 C 77.203125 24.257812 78.007812 21.621094 78.859375 19.003906 C 79.789062 16.152344 84.332031 17.402344 83.359375 20.246094 C 82.589844 22.570312 81.597656 25.160156 80.960938 27.734375 C 83.554688 26.328125 86.136719 24.917969 88.710938 23.503906 C 91.351562 22.042969 93.710938 26.089844 91.070312 27.546875 C 88.152344 29.167969 85.214844 30.773438 82.257812 32.363281 C 84.375 33.609375 86.582031 34.667969 88.878906 35.539062 C 91.632812 36.671875 90.421875 41.195312 87.640625 40.054688 C 85.421875 39.167969 83.269531 38.140625 81.183594 36.976562 C 79.949219 36.351562 78.761719 35.652344 77.617188 34.871094 C 75.492188 36.019531 73.363281 37.15625 71.242188 38.277344 L 71.9375 38.476562 C 73.789062 39.035156 75.617188 39.648438 77.4375 40.296875 C 80.265625 41.304688 79.039062 45.824219 76.199219 44.8125 C 73.464844 43.839844 70.710938 42.957031 67.925781 42.199219 C 67.058594 42.011719 66.214844 41.738281 65.398438 41.386719 C 61.136719 43.65625 56.863281 45.894531 52.582031 48.105469 C 57.394531 51.042969 62.183594 54.019531 66.945312 57.03125 C 67.296875 56.816406 67.683594 56.707031 68.097656 56.710938 C 72.261719 56.703125 76.316406 56.035156 80.261719 54.703125 C 83.128906 53.726562 84.347656 58.261719 81.503906 59.210938 C 78.824219 60.109375 76.078125 60.730469 73.269531 61.074219 C 75.328125 62.398438 77.375 63.730469 79.414062 65.078125 C 82.980469 63.578125 86.535156 62.039062 90.078125 60.453125 C 92.777344 59.242188 95.152344 63.292969 92.40625 64.519531 Z M 28.472656 14.234375 C 32.152344 14.234375 32.160156 8.515625 28.472656 8.515625 C 24.785156 8.515625 24.785156 14.234375 28.472656 14.234375 Z M 73.445312 15.484375 C 73.820312 15.476562 74.183594 15.398438 74.53125 15.253906 C 74.875 15.105469 75.183594 14.898438 75.449219 14.628906 C 75.71875 14.363281 75.925781 14.058594 76.070312 13.710938 C 76.21875 13.363281 76.296875 13 76.304688 12.625 L 76.304688 12.375 C 76.292969 11.589844 76.015625 10.917969 75.46875 10.351562 C 75.058594 9.949219 74.570312 9.695312 74.007812 9.585938 C 73.441406 9.476562 72.894531 9.53125 72.363281 9.753906 C 71.835938 9.972656 71.410156 10.320312 71.089844 10.800781 C 70.769531 11.277344 70.605469 11.800781 70.601562 12.375 L 70.601562 12.625 C 70.613281 13.410156 70.894531 14.085938 71.441406 14.648438 C 71.996094 15.195312 72.664062 15.472656 73.445312 15.484375 Z M 4.582031 51.34375 C 8.257812 51.34375 8.269531 45.625 4.582031 45.625 C 0.894531 45.625 0.894531 51.34375 4.582031 51.34375 Z M 24.039062 84.378906 C 23.347656 83.976562 22.613281 83.878906 21.835938 84.089844 C 21.085938 84.292969 20.515625 84.730469 20.125 85.402344 L 19.890625 85.890625 C 19.511719 86.589844 19.417969 87.324219 19.605469 88.097656 C 19.707031 88.464844 19.871094 88.796875 20.105469 89.09375 C 20.339844 89.394531 20.621094 89.636719 20.949219 89.824219 C 21.28125 90.011719 21.632812 90.128906 22.007812 90.175781 C 22.386719 90.222656 22.757812 90.195312 23.121094 90.09375 C 23.875 89.894531 24.445312 89.457031 24.832031 88.78125 L 25.066406 88.292969 C 25.445312 87.59375 25.539062 86.859375 25.355469 86.089844 C 25.148438 85.347656 24.71875 84.777344 24.058594 84.378906 Z M 66.632812 82.484375 C 66.257812 82.492188 65.894531 82.570312 65.546875 82.71875 C 65.199219 82.867188 64.894531 83.074219 64.628906 83.339844 C 64.359375 83.605469 64.152344 83.914062 64.003906 84.257812 C 63.859375 84.605469 63.78125 84.96875 63.773438 85.34375 L 63.773438 85.59375 C 63.777344 86.382812 64.058594 87.054688 64.609375 87.617188 C 65.019531 88.019531 65.507812 88.277344 66.070312 88.386719 C 66.632812 88.492188 67.183594 88.4375 67.710938 88.21875 C 68.242188 87.996094 68.667969 87.648438 68.988281 87.171875 C 69.308594 86.695312 69.472656 86.167969 69.472656 85.59375 L 69.472656 85.34375 C 69.464844 84.558594 69.183594 83.882812 68.632812 83.320312 C 68.085938 82.777344 67.425781 82.5 66.652344 82.484375 Z M 90.523438 51.347656 C 94.203125 51.347656 94.210938 45.628906 90.523438 45.628906 C 86.835938 45.628906 86.855469 51.34375 90.542969 51.34375 Z M 90.523438 51.347656 "/></g></svg>