<svg xmlns="http://www.w3.org/2000/svg" xmlns:xlink="http://www.w3.org/1999/xlink" width="162" zoomAndPan="magnify" viewBox="0 0 121.5 95.999999" height="128" preserveAspectRatio="xMidYMid meet" version="1.2"><defs><clipPath id="14725517b5"><path d="M 13 0.195312 L 25 0.195312 L 25 18 L 13 18 Z M 13 0.195312 "/></clipPath></defs><g id="6a52297f68"><path style=" stroke:none;fill-rule:evenodd;fill:#f9dbbd;fill-opacity:1;" d="M 107.34375 35.789062 C 102.113281 33.664062 96.679688 33.207031 91.101562 33.722656 C 90.179688 33.816406 89.480469 34.203125 89.316406 35.308594 C 88.890625 38.035156 86.164062 46.800781 91.023438 46.910156 C 92.242188 46.910156 93.457031 46.839844 94.671875 46.910156 C 96.734375 47.019531 98.796875 47.207031 100.660156 48.167969 C 101.707031 48.714844 102.722656 49.382812 102.519531 50.851562 C 101.742188 53.632812 99.847656 55.421875 97.324219 56.636719 C 96.183594 57.183594 95.039062 57.742188 93.882812 58.234375 C 89 60.394531 86.105469 64.238281 84.691406 69.289062 C 84.285156 70.746094 84.0625 72.253906 84.5625 73.726562 C 84.816406 74.851562 85.613281 75.402344 86.660156 75.675781 C 88.816406 76.269531 90.953125 76.824219 93.089844 77.429688 C 94.304688 77.777344 95.078125 77.40625 95.59375 76.230469 C 96.074219 75.160156 96.570312 74.097656 97.160156 73.078125 C 98.835938 70.210938 101.632812 68.738281 104.507812 67.371094 C 106.9375 66.210938 109.371094 65.105469 111.65625 63.636719 C 118.210938 59.382812 119.832031 49.121094 115.964844 43.597656 C 113.992188 39.984375 111.175781 37.335938 107.34375 35.789062 Z M 107.34375 35.789062 "/><path style=" stroke:none;fill-rule:evenodd;fill:#f9dbbd;fill-opacity:1;" d="M 85.386719 22.492188 C 84.929688 18.691406 83.765625 15.195312 81.078125 12.332031 C 78.242188 9.136719 74.925781 6.621094 70.746094 5.429688 C 64.097656 3.519531 57.355469 3.566406 50.671875 5.230469 C 46.730469 6.21875 43.066406 7.902344 40.082031 10.8125 C 39.160156 11.726562 38.714844 12.820312 39.214844 14.027344 C 40.539062 17.324219 41.980469 20.574219 43.359375 23.871094 C 43.523438 24.515625 43.929688 24.988281 44.28125 25.511719 C 45.3125 26.894531 46.140625 26.980469 47.558594 25.972656 C 48.847656 25.03125 50.175781 24.089844 51.648438 23.488281 C 56.289062 21.605469 60.894531 21.109375 65.390625 23.925781 C 65.792969 24.496094 65.902344 25.140625 65.9375 25.820312 C 66.125 28.460938 65.242188 30.773438 63.769531 32.910156 C 62.550781 34.679688 60.894531 36.085938 59.273438 37.476562 C 56.769531 39.636719 54.78125 42.121094 53.746094 45.308594 C 52.644531 48.75 51.796875 52.265625 51.554688 55.859375 C 51.40625 57.925781 50.984375 60.0625 52.089844 62.046875 C 52.199219 62.125 52.273438 62.199219 52.382812 62.269531 C 52.273438 62.214844 52.199219 62.144531 52.089844 62.046875 C 53.230469 64.152344 54.867188 65.386719 57.394531 65.070312 C 60.121094 64.742188 62.878906 64.808594 65.609375 64.851562 C 66.730469 64.886719 67.378906 64.371094 67.488281 63.265625 C 67.667969 61.683594 67.78125 60.097656 67.929688 58.496094 C 68.261719 55.089844 69.328125 51.957031 71.613281 49.304688 C 73.582031 47.039062 75.757812 44.980469 77.871094 42.898438 C 83.601562 37.257812 86.328125 30.554688 85.386719 22.492188 Z M 85.386719 22.492188 "/><path style=" stroke:none;fill-rule:evenodd;fill:#f9dbbd;fill-opacity:1;" d="M 26.820312 80.210938 C 24.242188 83.726562 25.828125 88.6875 30.023438 90.800781 C 31.832031 91.777344 33.710938 92.09375 35.699219 91.449219 C 40.707031 89.785156 41.921875 83.527344 38.054688 79.507812 C 34.613281 75.015625 29.085938 77.15625 26.820312 80.210938 Z M 26.820312 80.210938 "/><path style=" stroke:none;fill-rule:evenodd;fill:#f9dbbd;fill-opacity:1;" d="M 90.953125 81.867188 C 88.855469 79.785156 86.292969 79.03125 83.476562 79.695312 C 78.867188 80.761719 76.695312 88.207031 80.804688 91.910156 C 82.664062 94.167969 85.097656 95.019531 87.894531 94.285156 C 93.214844 92.863281 94.855469 86.105469 90.953125 81.867188 Z M 90.953125 81.867188 "/><path style=" stroke:none;fill-rule:evenodd;fill:#f9dbbd;fill-opacity:1;" d="M 36.582031 33.191406 C 35.074219 31.847656 33.265625 31.035156 31.386719 30.421875 C 26.75 28.976562 22.253906 29.761719 17.816406 31.40625 C 11.441406 33.742188 6.433594 37.664062 3.285156 43.777344 C 2.359375 45.5625 2.472656 46.359375 4.019531 47.632812 C 5.898438 49.195312 7.921875 50.667969 9.875 52.175781 C 10.097656 52.398438 10.300781 52.582031 10.519531 52.769531 C 12.234375 54.183594 13.449219 54.019531 14.722656 52.199219 C 15.179688 51.554688 15.625 50.886719 16.0625 50.226562 C 17.941406 47.421875 20.335938 45.398438 23.726562 44.71875 C 24.832031 44.519531 25.898438 44.390625 26.929688 44.925781 C 27.648438 45.691406 27.886719 46.65625 27.964844 47.683594 C 28.109375 50.226562 27.003906 52.308594 25.679688 54.3125 C 24.648438 55.859375 23.429688 57.261719 22.695312 58.957031 C 21.292969 62.234375 21.261719 65.660156 21.773438 69.089844 C 21.996094 70.414062 22.179688 71.753906 23.320312 72.660156 C 24.613281 74.171875 26.140625 74.46875 27.964844 73.726562 C 29.695312 72.992188 31.480469 72.367188 33.230469 71.699219 C 35.21875 70.945312 35.511719 70.59375 35.292969 68.53125 C 34.941406 65.035156 35.699219 61.871094 37.726562 58.992188 C 38.683594 57.613281 39.492188 56.140625 40.339844 54.699219 C 44.539062 47.535156 42.957031 38.515625 36.582031 33.191406 Z M 36.582031 33.191406 "/><g clip-rule="nonzero" clip-path="url(#14725517b5)"><path style=" stroke:none;fill-rule:evenodd;fill:#f9dbbd;fill-opacity:1;" d="M 19.601562 14.472656 C 19.894531 15.039062 20.097656 15.648438 20.449219 16.144531 C 21.148438 17.148438 22.695312 17.441406 23.726562 16.84375 C 24.832031 16.207031 25.125 15.121094 24.464844 13.8125 C 22.546875 9.90625 20.578125 6.003906 18.570312 2.128906 C 17.722656 0.46875 16.652344 0.199219 15.070312 1.113281 C 13.925781 1.765625 13.667969 2.839844 14.203125 3.902344 C 15.953125 7.460938 17.792969 10.957031 19.601562 14.472656 Z M 19.601562 14.472656 "/></g><path style=" stroke:none;fill-rule:evenodd;fill:#f9dbbd;fill-opacity:1;" d="M 65.148438 72.902344 C 64.464844 71.960938 63.488281 71.515625 62.476562 71.152344 C 57.027344 69.199219 50.539062 73.320312 50.285156 79.050781 C 50.136719 82.566406 50.796875 85.882812 54.261719 87.835938 C 55.367188 88.589844 56.582031 89.203125 57.875 89.53125 C 60.671875 90.265625 63.363281 90.011719 65.570312 88.054688 C 70.101562 84.078125 69.867188 76.726562 65.148438 72.902344 Z M 65.148438 72.902344 "/><path style=" stroke:none;fill-rule:evenodd;fill:#f9dbbd;fill-opacity:1;" d="M 95.410156 21.308594 C 96.734375 21.605469 97.546875 20.945312 98.117188 19.78125 C 99.867188 16.203125 101.617188 12.625 103.417969 9.089844 C 104.027344 7.957031 103.972656 7.035156 103.074219 6.132812 C 101.632812 4.796875 100.085938 4.925781 99.238281 6.546875 C 97.304688 10.367188 95.410156 14.210938 93.496094 18.039062 C 93.417969 18.402344 93.160156 18.65625 93.273438 19.097656 C 93.601562 20.246094 94.25 21.054688 95.410156 21.308594 Z M 95.410156 21.308594 "/><path style=" stroke:none;fill-rule:evenodd;fill:#f9dbbd;fill-opacity:1;" d="M 108.890625 29.488281 C 111.800781 27.519531 114.675781 25.492188 117.492188 23.410156 C 118.78125 22.46875 118.761719 21.382812 117.730469 20.058594 C 116.515625 18.898438 115.761719 18.710938 114.542969 19.578125 C 111.691406 21.527344 108.890625 23.597656 106.09375 25.621094 C 104.929688 26.652344 104.839844 27.683594 105.796875 29.007812 C 106.535156 30.039062 107.675781 30.300781 108.890625 29.488281 Z M 108.890625 29.488281 "/><path style=" stroke:none;fill-rule:evenodd;fill:#f9dbbd;fill-opacity:1;" d="M 13.816406 26.316406 C 14.628906 25.328125 14.664062 23.851562 13.667969 23.082031 C 11.921875 21.679688 10.078125 20.355469 8.273438 19.03125 C 6.964844 18.035156 5.679688 17.011719 4.351562 16.082031 C 3.246094 15.304688 2.179688 15.574219 1.292969 16.699219 C 0.445312 17.761719 0.410156 19.097656 1.382812 19.851562 C 4.5 22.195312 7.554688 24.570312 10.871094 26.652344 C 12.085938 27.441406 13.007812 27.351562 13.816406 26.316406 Z M 13.816406 26.316406 "/></g></svg>