<svg xmlns="http://www.w3.org/2000/svg" xmlns:xlink="http://www.w3.org/1999/xlink" width="141" zoomAndPan="magnify" viewBox="0 0 105.75 82.499998" height="110" preserveAspectRatio="xMidYMid meet" version="1.2"><defs><clipPath id="f38e8e80dd"><path d="M 0.195312 0 L 52 0 L 52 81.257812 L 0.195312 81.257812 Z M 0.195312 0 "/></clipPath><clipPath id="baf5368908"><path d="M 53 0 L 105 0 L 105 81.257812 L 53 81.257812 Z M 53 0 "/></clipPath></defs><g id="622ea02cf7"><path style=" stroke:none;fill-rule:nonzero;fill:#f5f8fa;fill-opacity:1;" d="M 48.921875 40.484375 C 48.921875 41.742188 48.886719 42.996094 48.8125 44.25 C 48.738281 45.5 48.628906 46.742188 48.480469 47.976562 C 48.335938 49.210938 48.152344 50.429688 47.933594 51.632812 C 47.714844 52.835938 47.460938 54.019531 47.171875 55.179688 C 46.886719 56.34375 46.5625 57.480469 46.207031 58.589844 C 45.851562 59.699219 45.464844 60.773438 45.046875 61.820312 C 44.628906 62.867188 44.179688 63.875 43.703125 64.847656 C 43.226562 65.820312 42.71875 66.75 42.1875 67.640625 C 41.65625 68.53125 41.097656 69.375 40.515625 70.171875 C 39.933594 70.96875 39.328125 71.71875 38.703125 72.417969 C 38.078125 73.117188 37.429688 73.761719 36.765625 74.355469 C 36.101562 74.949219 35.421875 75.484375 34.726562 75.964844 C 34.03125 76.445312 33.324219 76.871094 32.601562 77.234375 C 31.882812 77.601562 31.152344 77.90625 30.414062 78.152344 C 29.671875 78.398438 28.929688 78.582031 28.179688 78.703125 C 27.429688 78.828125 26.679688 78.890625 25.925781 78.890625 C 25.171875 78.890625 24.421875 78.828125 23.671875 78.703125 C 22.921875 78.582031 22.179688 78.398438 21.4375 78.152344 C 20.699219 77.90625 19.96875 77.601562 19.25 77.234375 C 18.527344 76.871094 17.820312 76.445312 17.125 75.964844 C 16.429688 75.484375 15.75 74.949219 15.085938 74.355469 C 14.421875 73.761719 13.773438 73.117188 13.148438 72.417969 C 12.523438 71.71875 11.917969 70.96875 11.335938 70.171875 C 10.753906 69.375 10.195312 68.53125 9.664062 67.640625 C 9.132812 66.75 8.625 65.820312 8.148438 64.847656 C 7.671875 63.875 7.222656 62.867188 6.804688 61.820312 C 6.386719 60.773438 6 59.699219 5.644531 58.589844 C 5.289062 57.480469 4.964844 56.34375 4.679688 55.179688 C 4.390625 54.019531 4.136719 52.835938 3.917969 51.632812 C 3.699219 50.429688 3.515625 49.210938 3.371094 47.976562 C 3.222656 46.742188 3.113281 45.5 3.039062 44.25 C 2.964844 42.996094 2.929688 41.742188 2.929688 40.484375 C 2.929688 39.226562 2.964844 37.972656 3.039062 36.71875 C 3.113281 35.46875 3.222656 34.226562 3.371094 32.992188 C 3.515625 31.757812 3.699219 30.539062 3.917969 29.335938 C 4.136719 28.132812 4.390625 26.949219 4.679688 25.789062 C 4.964844 24.625 5.289062 23.488281 5.644531 22.378906 C 6 21.269531 6.386719 20.191406 6.804688 19.148438 C 7.222656 18.101562 7.671875 17.09375 8.148438 16.121094 C 8.625 15.148438 9.132812 14.21875 9.664062 13.328125 C 10.195312 12.4375 10.753906 11.59375 11.335938 10.796875 C 11.917969 10 12.523438 9.25 13.148438 8.550781 C 13.773438 7.851562 14.421875 7.207031 15.085938 6.613281 C 15.75 6.019531 16.429688 5.484375 17.125 5.003906 C 17.820312 4.519531 18.527344 4.097656 19.25 3.734375 C 19.96875 3.367188 20.699219 3.0625 21.4375 2.816406 C 22.179688 2.570312 22.921875 2.386719 23.671875 2.265625 C 24.421875 2.140625 25.171875 2.078125 25.925781 2.078125 C 26.679688 2.078125 27.429688 2.140625 28.179688 2.265625 C 28.929688 2.386719 29.671875 2.570312 30.414062 2.816406 C 31.152344 3.0625 31.882812 3.367188 32.601562 3.734375 C 33.324219 4.097656 34.03125 4.519531 34.726562 5.003906 C 35.421875 5.484375 36.101562 6.019531 36.765625 6.613281 C 37.429688 7.207031 38.078125 7.851562 38.703125 8.550781 C 39.328125 9.25 39.933594 10 40.515625 10.796875 C 41.097656 11.59375 41.65625 12.4375 42.1875 13.328125 C 42.71875 14.21875 43.226562 15.148438 43.703125 16.121094 C 44.179688 17.09375 44.628906 18.101562 45.046875 19.148438 C 45.464844 20.191406 45.851562 21.269531 46.207031 22.378906 C 46.5625 23.488281 46.886719 24.625 47.171875 25.789062 C 47.460938 26.949219 47.714844 28.132812 47.933594 29.335938 C 48.152344 30.539062 48.335938 31.757812 48.480469 32.992188 C 48.628906 34.226562 48.738281 35.46875 48.8125 36.71875 C 48.886719 37.972656 48.921875 39.226562 48.921875 40.484375 Z M 48.921875 40.484375 "/><g clip-rule="nonzero" clip-path="url(#f38e8e80dd)"><path style=" stroke:none;fill-rule:nonzero;fill:#f9dbbd;fill-opacity:1;" d="M 25.925781 81.058594 C 11.8125 81.058594 0.757812 63.234375 0.757812 40.484375 C 0.757812 17.730469 11.8125 -0.0898438 25.925781 -0.0898438 C 40.039062 -0.0898438 51.09375 17.730469 51.09375 40.484375 C 51.09375 63.234375 40.039062 81.058594 25.925781 81.058594 Z M 25.925781 4.246094 C 14.441406 4.246094 5.097656 20.503906 5.097656 40.484375 C 5.097656 60.464844 14.441406 76.71875 25.925781 76.71875 C 37.410156 76.71875 46.753906 60.464844 46.753906 40.484375 C 46.753906 20.503906 37.410156 4.246094 25.925781 4.246094 Z M 25.925781 4.246094 "/></g><path style=" stroke:none;fill-rule:nonzero;fill:#8899a6;fill-opacity:1;" d="M 33.808594 40.484375 C 33.808594 41.425781 33.714844 42.359375 33.53125 43.28125 C 33.347656 44.207031 33.078125 45.101562 32.714844 45.972656 C 32.355469 46.84375 31.914062 47.667969 31.390625 48.453125 C 30.867188 49.234375 30.273438 49.960938 29.609375 50.625 C 28.941406 51.292969 28.21875 51.886719 27.433594 52.410156 C 26.652344 52.933594 25.824219 53.375 24.953125 53.734375 C 24.085938 54.097656 23.1875 54.367188 22.265625 54.550781 C 21.339844 54.734375 20.40625 54.828125 19.464844 54.828125 C 18.523438 54.828125 17.589844 54.734375 16.667969 54.550781 C 15.742188 54.367188 14.847656 54.097656 13.976562 53.734375 C 13.105469 53.375 12.28125 52.933594 11.496094 52.410156 C 10.714844 51.886719 9.988281 51.292969 9.324219 50.625 C 8.65625 49.960938 8.0625 49.234375 7.539062 48.453125 C 7.015625 47.667969 6.574219 46.84375 6.214844 45.972656 C 5.855469 45.101562 5.582031 44.207031 5.398438 43.28125 C 5.214844 42.359375 5.121094 41.425781 5.121094 40.484375 C 5.121094 39.542969 5.214844 38.609375 5.398438 37.6875 C 5.582031 36.761719 5.855469 35.867188 6.214844 34.996094 C 6.574219 34.125 7.015625 33.296875 7.539062 32.515625 C 8.0625 31.734375 8.65625 31.007812 9.324219 30.34375 C 9.988281 29.675781 10.714844 29.082031 11.496094 28.558594 C 12.28125 28.035156 13.105469 27.59375 13.976562 27.234375 C 14.847656 26.871094 15.742188 26.601562 16.667969 26.417969 C 17.589844 26.234375 18.523438 26.140625 19.464844 26.140625 C 20.40625 26.140625 21.339844 26.234375 22.265625 26.417969 C 23.1875 26.601562 24.085938 26.871094 24.953125 27.234375 C 25.824219 27.59375 26.652344 28.035156 27.433594 28.558594 C 28.21875 29.082031 28.941406 29.675781 29.609375 30.34375 C 30.273438 31.007812 30.867188 31.734375 31.390625 32.515625 C 31.914062 33.296875 32.355469 34.125 32.714844 34.996094 C 33.078125 35.867188 33.347656 36.761719 33.53125 37.6875 C 33.714844 38.609375 33.808594 39.542969 33.808594 40.484375 Z M 33.808594 40.484375 "/><path style=" stroke:none;fill-rule:nonzero;fill:#292f33;fill-opacity:1;" d="M 29.773438 40.484375 C 29.773438 41.160156 29.707031 41.832031 29.578125 42.496094 C 29.445312 43.160156 29.25 43.804688 28.988281 44.429688 C 28.730469 45.054688 28.414062 45.648438 28.039062 46.210938 C 27.660156 46.773438 27.234375 47.296875 26.753906 47.773438 C 26.277344 48.253906 25.753906 48.679688 25.191406 49.054688 C 24.628906 49.433594 24.035156 49.75 23.410156 50.007812 C 22.785156 50.265625 22.140625 50.464844 21.476562 50.59375 C 20.8125 50.726562 20.140625 50.792969 19.464844 50.792969 C 18.789062 50.792969 18.117188 50.726562 17.453125 50.59375 C 16.789062 50.464844 16.144531 50.265625 15.519531 50.007812 C 14.894531 49.75 14.300781 49.433594 13.738281 49.054688 C 13.175781 48.679688 12.65625 48.253906 12.175781 47.773438 C 11.699219 47.296875 11.269531 46.773438 10.894531 46.210938 C 10.519531 45.648438 10.199219 45.054688 9.941406 44.429688 C 9.683594 43.804688 9.488281 43.160156 9.355469 42.496094 C 9.222656 41.832031 9.15625 41.160156 9.15625 40.484375 C 9.15625 39.808594 9.222656 39.136719 9.355469 38.472656 C 9.488281 37.808594 9.683594 37.164062 9.941406 36.539062 C 10.199219 35.914062 10.519531 35.320312 10.894531 34.757812 C 11.269531 34.195312 11.699219 33.671875 12.175781 33.195312 C 12.65625 32.714844 13.175781 32.289062 13.738281 31.914062 C 14.300781 31.535156 14.894531 31.21875 15.519531 30.960938 C 16.144531 30.699219 16.789062 30.503906 17.453125 30.375 C 18.117188 30.242188 18.789062 30.175781 19.464844 30.175781 C 20.140625 30.175781 20.8125 30.242188 21.476562 30.375 C 22.140625 30.503906 22.785156 30.699219 23.410156 30.960938 C 24.035156 31.21875 24.628906 31.535156 25.191406 31.914062 C 25.753906 32.289062 26.277344 32.714844 26.753906 33.195312 C 27.234375 33.671875 27.660156 34.195312 28.039062 34.757812 C 28.414062 35.320312 28.730469 35.914062 28.988281 36.539062 C 29.25 37.164062 29.445312 37.808594 29.578125 38.472656 C 29.707031 39.136719 29.773438 39.808594 29.773438 40.484375 Z M 29.773438 40.484375 "/><path style=" stroke:none;fill-rule:nonzero;fill:#f5f8fa;fill-opacity:1;" d="M 27.398438 33.089844 C 27.398438 33.359375 27.371094 33.628906 27.320312 33.894531 C 27.265625 34.160156 27.1875 34.417969 27.082031 34.667969 C 26.980469 34.917969 26.851562 35.15625 26.703125 35.382812 C 26.550781 35.605469 26.382812 35.8125 26.191406 36.003906 C 26 36.199219 25.789062 36.367188 25.566406 36.519531 C 25.339844 36.667969 25.101562 36.796875 24.851562 36.898438 C 24.601562 37.003906 24.34375 37.082031 24.078125 37.132812 C 23.8125 37.1875 23.542969 37.214844 23.273438 37.214844 C 23.003906 37.214844 22.734375 37.1875 22.46875 37.132812 C 22.203125 37.082031 21.945312 37.003906 21.695312 36.898438 C 21.445312 36.796875 21.207031 36.667969 20.984375 36.519531 C 20.757812 36.367188 20.550781 36.199219 20.359375 36.003906 C 20.167969 35.8125 19.996094 35.605469 19.84375 35.382812 C 19.695312 35.15625 19.566406 34.917969 19.464844 34.667969 C 19.359375 34.417969 19.28125 34.160156 19.230469 33.894531 C 19.175781 33.628906 19.152344 33.359375 19.152344 33.089844 C 19.152344 32.820312 19.175781 32.550781 19.230469 32.285156 C 19.28125 32.019531 19.359375 31.761719 19.464844 31.511719 C 19.566406 31.261719 19.695312 31.023438 19.84375 30.800781 C 19.996094 30.574219 20.167969 30.367188 20.359375 30.175781 C 20.550781 29.984375 20.757812 29.8125 20.984375 29.660156 C 21.207031 29.511719 21.445312 29.382812 21.695312 29.28125 C 21.945312 29.175781 22.203125 29.097656 22.46875 29.046875 C 22.734375 28.992188 23.003906 28.964844 23.273438 28.964844 C 23.542969 28.964844 23.8125 28.992188 24.078125 29.046875 C 24.34375 29.097656 24.601562 29.175781 24.851562 29.28125 C 25.101562 29.382812 25.339844 29.511719 25.566406 29.660156 C 25.789062 29.8125 26 29.984375 26.191406 30.175781 C 26.382812 30.367188 26.550781 30.574219 26.703125 30.800781 C 26.851562 31.023438 26.980469 31.261719 27.082031 31.511719 C 27.1875 31.761719 27.265625 32.019531 27.320312 32.285156 C 27.371094 32.550781 27.398438 32.820312 27.398438 33.089844 Z M 27.398438 33.089844 "/><path style=" stroke:none;fill-rule:nonzero;fill:#f5f8fa;fill-opacity:1;" d="M 102.148438 40.484375 C 102.148438 41.742188 102.113281 42.996094 102.039062 44.25 C 101.964844 45.5 101.855469 46.742188 101.707031 47.976562 C 101.558594 49.210938 101.378906 50.429688 101.160156 51.632812 C 100.941406 52.835938 100.6875 54.019531 100.398438 55.179688 C 100.109375 56.34375 99.789062 57.480469 99.433594 58.589844 C 99.078125 59.699219 98.691406 60.773438 98.273438 61.820312 C 97.855469 62.867188 97.40625 63.875 96.929688 64.847656 C 96.449219 65.820312 95.945312 66.75 95.414062 67.640625 C 94.878906 68.53125 94.324219 69.375 93.742188 70.171875 C 93.160156 70.96875 92.554688 71.71875 91.929688 72.417969 C 91.300781 73.117188 90.65625 73.761719 89.992188 74.355469 C 89.328125 74.949219 88.648438 75.484375 87.953125 75.964844 C 87.257812 76.445312 86.546875 76.871094 85.828125 77.234375 C 85.105469 77.601562 84.375 77.90625 83.636719 78.152344 C 82.898438 78.398438 82.15625 78.582031 81.40625 78.703125 C 80.65625 78.828125 79.902344 78.890625 79.152344 78.890625 C 78.398438 78.890625 77.644531 78.828125 76.898438 78.703125 C 76.148438 78.582031 75.402344 78.398438 74.664062 78.152344 C 73.925781 77.90625 73.195312 77.601562 72.476562 77.234375 C 71.753906 76.871094 71.046875 76.445312 70.351562 75.964844 C 69.652344 75.484375 68.972656 74.949219 68.308594 74.355469 C 67.644531 73.761719 67 73.117188 66.375 72.417969 C 65.746094 71.71875 65.144531 70.96875 64.5625 70.171875 C 63.980469 69.375 63.421875 68.53125 62.890625 67.640625 C 62.355469 66.75 61.851562 65.820312 61.375 64.847656 C 60.894531 63.875 60.445312 62.867188 60.027344 61.820312 C 59.609375 60.773438 59.222656 59.699219 58.867188 58.589844 C 58.511719 57.480469 58.191406 56.34375 57.902344 55.179688 C 57.617188 54.019531 57.363281 52.835938 57.144531 51.632812 C 56.925781 50.429688 56.742188 49.210938 56.59375 47.976562 C 56.449219 46.742188 56.335938 45.5 56.265625 44.25 C 56.191406 42.996094 56.152344 41.742188 56.152344 40.484375 C 56.152344 39.226562 56.191406 37.972656 56.265625 36.71875 C 56.335938 35.46875 56.449219 34.226562 56.59375 32.992188 C 56.742188 31.757812 56.925781 30.539062 57.144531 29.335938 C 57.363281 28.132812 57.617188 26.949219 57.902344 25.789062 C 58.191406 24.625 58.511719 23.488281 58.867188 22.378906 C 59.222656 21.269531 59.609375 20.191406 60.027344 19.148438 C 60.445312 18.101562 60.894531 17.09375 61.375 16.121094 C 61.851562 15.148438 62.355469 14.21875 62.890625 13.328125 C 63.421875 12.4375 63.980469 11.59375 64.5625 10.796875 C 65.144531 10 65.746094 9.25 66.375 8.550781 C 67 7.851562 67.644531 7.207031 68.308594 6.613281 C 68.972656 6.019531 69.652344 5.484375 70.351562 5.003906 C 71.046875 4.519531 71.753906 4.097656 72.476562 3.734375 C 73.195312 3.367188 73.925781 3.0625 74.664062 2.816406 C 75.402344 2.570312 76.148438 2.386719 76.898438 2.265625 C 77.644531 2.140625 78.398438 2.078125 79.152344 2.078125 C 79.902344 2.078125 80.65625 2.140625 81.40625 2.265625 C 82.15625 2.386719 82.898438 2.570312 83.636719 2.816406 C 84.375 3.0625 85.105469 3.367188 85.828125 3.734375 C 86.546875 4.097656 87.257812 4.519531 87.953125 5.003906 C 88.648438 5.484375 89.328125 6.019531 89.992188 6.613281 C 90.65625 7.207031 91.300781 7.851562 91.929688 8.550781 C 92.554688 9.25 93.160156 10 93.742188 10.796875 C 94.324219 11.59375 94.878906 12.4375 95.414062 13.328125 C 95.945312 14.21875 96.449219 15.148438 96.929688 16.121094 C 97.40625 17.09375 97.855469 18.101562 98.273438 19.148438 C 98.691406 20.191406 99.078125 21.269531 99.433594 22.378906 C 99.789062 23.488281 100.109375 24.625 100.398438 25.789062 C 100.6875 26.949219 100.941406 28.132812 101.160156 29.335938 C 101.378906 30.539062 101.558594 31.757812 101.707031 32.992188 C 101.855469 34.226562 101.964844 35.46875 102.039062 36.71875 C 102.113281 37.972656 102.148438 39.226562 102.148438 40.484375 Z M 102.148438 40.484375 "/><g clip-rule="nonzero" clip-path="url(#baf5368908)"><path style=" stroke:none;fill-rule:nonzero;fill:#f9dbbd;fill-opacity:1;" d="M 79.152344 81.058594 C 65.039062 81.058594 53.984375 63.234375 53.984375 40.484375 C 53.984375 17.730469 65.039062 -0.0898438 79.152344 -0.0898438 C 93.261719 -0.0898438 104.320312 17.730469 104.320312 40.484375 C 104.320312 63.234375 93.261719 81.058594 79.152344 81.058594 Z M 79.152344 4.246094 C 67.664062 4.246094 58.320312 20.503906 58.320312 40.484375 C 58.320312 60.464844 67.664062 76.71875 79.152344 76.71875 C 90.636719 76.71875 99.984375 60.464844 99.984375 40.484375 C 99.984375 20.503906 90.636719 4.246094 79.152344 4.246094 Z M 79.152344 4.246094 "/></g><path style=" stroke:none;fill-rule:nonzero;fill:#8899a6;fill-opacity:1;" d="M 87.035156 40.484375 C 87.035156 41.425781 86.941406 42.359375 86.757812 43.28125 C 86.574219 44.207031 86.300781 45.101562 85.941406 45.972656 C 85.582031 46.84375 85.140625 47.667969 84.617188 48.453125 C 84.09375 49.234375 83.5 49.960938 82.832031 50.625 C 82.167969 51.292969 81.441406 51.886719 80.660156 52.410156 C 79.875 52.933594 79.050781 53.375 78.179688 53.734375 C 77.308594 54.097656 76.414062 54.367188 75.488281 54.550781 C 74.566406 54.734375 73.632812 54.828125 72.691406 54.828125 C 71.75 54.828125 70.816406 54.734375 69.890625 54.550781 C 68.96875 54.367188 68.070312 54.097656 67.203125 53.734375 C 66.332031 53.375 65.503906 52.933594 64.722656 52.410156 C 63.9375 51.886719 63.214844 51.292969 62.546875 50.625 C 61.882812 49.960938 61.289062 49.234375 60.765625 48.453125 C 60.242188 47.667969 59.800781 46.84375 59.441406 45.972656 C 59.078125 45.101562 58.808594 44.207031 58.625 43.28125 C 58.441406 42.359375 58.347656 41.425781 58.347656 40.484375 C 58.347656 39.542969 58.441406 38.609375 58.625 37.6875 C 58.808594 36.761719 59.078125 35.867188 59.441406 34.996094 C 59.800781 34.125 60.242188 33.296875 60.765625 32.515625 C 61.289062 31.734375 61.882812 31.007812 62.546875 30.34375 C 63.214844 29.675781 63.9375 29.082031 64.722656 28.558594 C 65.503906 28.035156 66.332031 27.59375 67.203125 27.234375 C 68.070312 26.871094 68.96875 26.601562 69.890625 26.417969 C 70.816406 26.234375 71.75 26.140625 72.691406 26.140625 C 73.632812 26.140625 74.566406 26.234375 75.488281 26.417969 C 76.414062 26.601562 77.308594 26.871094 78.179688 27.234375 C 79.050781 27.59375 79.875 28.035156 80.660156 28.558594 C 81.441406 29.082031 82.167969 29.675781 82.832031 30.34375 C 83.5 31.007812 84.09375 31.734375 84.617188 32.515625 C 85.140625 33.296875 85.582031 34.125 85.941406 34.996094 C 86.300781 35.867188 86.574219 36.761719 86.757812 37.6875 C 86.941406 38.609375 87.035156 39.542969 87.035156 40.484375 Z M 87.035156 40.484375 "/><path style=" stroke:none;fill-rule:nonzero;fill:#292f33;fill-opacity:1;" d="M 83 40.484375 C 83 41.160156 82.933594 41.832031 82.800781 42.496094 C 82.667969 43.160156 82.472656 43.804688 82.214844 44.429688 C 81.957031 45.054688 81.636719 45.648438 81.261719 46.210938 C 80.886719 46.773438 80.457031 47.296875 79.980469 47.773438 C 79.5 48.253906 78.980469 48.679688 78.417969 49.054688 C 77.855469 49.433594 77.261719 49.75 76.636719 50.007812 C 76.011719 50.265625 75.367188 50.464844 74.703125 50.59375 C 74.039062 50.726562 73.367188 50.792969 72.691406 50.792969 C 72.015625 50.792969 71.34375 50.726562 70.679688 50.59375 C 70.015625 50.464844 69.371094 50.265625 68.746094 50.007812 C 68.121094 49.75 67.527344 49.433594 66.964844 49.054688 C 66.402344 48.679688 65.878906 48.253906 65.402344 47.773438 C 64.921875 47.296875 64.496094 46.773438 64.117188 46.210938 C 63.742188 45.648438 63.425781 45.054688 63.167969 44.429688 C 62.90625 43.804688 62.710938 43.160156 62.578125 42.496094 C 62.449219 41.832031 62.382812 41.160156 62.382812 40.484375 C 62.382812 39.808594 62.449219 39.136719 62.578125 38.472656 C 62.710938 37.808594 62.90625 37.164062 63.167969 36.539062 C 63.425781 35.914062 63.742188 35.320312 64.117188 34.757812 C 64.496094 34.195312 64.921875 33.671875 65.402344 33.195312 C 65.878906 32.714844 66.402344 32.289062 66.964844 31.914062 C 67.527344 31.535156 68.121094 31.21875 68.746094 30.960938 C 69.371094 30.699219 70.015625 30.503906 70.679688 30.375 C 71.34375 30.242188 72.015625 30.175781 72.691406 30.175781 C 73.367188 30.175781 74.039062 30.242188 74.703125 30.375 C 75.367188 30.503906 76.011719 30.699219 76.636719 30.960938 C 77.261719 31.21875 77.855469 31.535156 78.417969 31.914062 C 78.980469 32.289062 79.5 32.714844 79.980469 33.195312 C 80.457031 33.671875 80.886719 34.195312 81.261719 34.757812 C 81.636719 35.320312 81.957031 35.914062 82.214844 36.539062 C 82.472656 37.164062 82.667969 37.808594 82.800781 38.472656 C 82.933594 39.136719 83 39.808594 83 40.484375 Z M 83 40.484375 "/><path style=" stroke:none;fill-rule:nonzero;fill:#f5f8fa;fill-opacity:1;" d="M 80.621094 33.089844 C 80.621094 33.359375 80.597656 33.628906 80.542969 33.894531 C 80.492188 34.160156 80.414062 34.417969 80.308594 34.667969 C 80.207031 34.917969 80.078125 35.15625 79.929688 35.382812 C 79.777344 35.605469 79.605469 35.8125 79.414062 36.003906 C 79.222656 36.199219 79.015625 36.367188 78.789062 36.519531 C 78.566406 36.667969 78.328125 36.796875 78.078125 36.898438 C 77.828125 37.003906 77.570312 37.082031 77.304688 37.132812 C 77.039062 37.1875 76.769531 37.214844 76.5 37.214844 C 76.226562 37.214844 75.960938 37.1875 75.695312 37.132812 C 75.429688 37.082031 75.171875 37.003906 74.921875 36.898438 C 74.671875 36.796875 74.433594 36.667969 74.207031 36.519531 C 73.984375 36.367188 73.773438 36.199219 73.582031 36.003906 C 73.390625 35.8125 73.222656 35.605469 73.070312 35.382812 C 72.921875 35.15625 72.792969 34.917969 72.6875 34.667969 C 72.585938 34.417969 72.507812 34.160156 72.453125 33.894531 C 72.402344 33.628906 72.375 33.359375 72.375 33.089844 C 72.375 32.820312 72.402344 32.550781 72.453125 32.285156 C 72.507812 32.019531 72.585938 31.761719 72.6875 31.511719 C 72.792969 31.261719 72.921875 31.023438 73.070312 30.800781 C 73.222656 30.574219 73.390625 30.367188 73.582031 30.175781 C 73.773438 29.984375 73.984375 29.8125 74.207031 29.660156 C 74.433594 29.511719 74.671875 29.382812 74.921875 29.28125 C 75.171875 29.175781 75.429688 29.097656 75.695312 29.046875 C 75.960938 28.992188 76.226562 28.964844 76.5 28.964844 C 76.769531 28.964844 77.039062 28.992188 77.304688 29.046875 C 77.570312 29.097656 77.828125 29.175781 78.078125 29.28125 C 78.328125 29.382812 78.566406 29.511719 78.789062 29.660156 C 79.015625 29.8125 79.222656 29.984375 79.414062 30.175781 C 79.605469 30.367188 79.777344 30.574219 79.929688 30.800781 C 80.078125 31.023438 80.207031 31.261719 80.308594 31.511719 C 80.414062 31.761719 80.492188 32.019531 80.542969 32.285156 C 80.597656 32.550781 80.621094 32.820312 80.621094 33.089844 Z M 80.621094 33.089844 "/></g></svg>