<svg xmlns="http://www.w3.org/2000/svg" xmlns:xlink="http://www.w3.org/1999/xlink" width="129" zoomAndPan="magnify" viewBox="0 0 96.75 96.749999" height="129" preserveAspectRatio="xMidYMid meet" version="1.2"><defs><clipPath id="c26f89c177"><path d="M 39 25 L 95.753906 25 L 95.753906 95.753906 L 39 95.753906 Z M 39 25 "/></clipPath><clipPath id="d7b94188ce"><path d="M 30 0 L 66 0 L 66 95.753906 L 30 95.753906 Z M 30 0 "/></clipPath><clipPath id="b4384836a0"><path d="M 0 44 L 56 44 L 56 95.753906 L 0 95.753906 Z M 0 44 "/></clipPath></defs><g id="6d06559bf4"><g clip-rule="nonzero" clip-path="url(#c26f89c177)"><path style=" stroke:none;fill-rule:nonzero;fill:#da4956;fill-opacity:1;" d="M 94.945312 41.855469 L 72.640625 25.921875 C 72.164062 25.570312 71.507812 25.523438 70.984375 25.792969 C 70.457031 26.066406 70.125 26.605469 70.125 27.210938 L 70.125 35.226562 C 53.28125 36.054688 39.851562 50.027344 39.851562 67.058594 L 39.851562 94.160156 C 39.851562 95.035156 40.570312 95.753906 41.445312 95.753906 L 54.191406 95.753906 C 55.066406 95.753906 55.785156 95.035156 55.785156 94.160156 L 55.785156 67.058594 C 55.785156 58.804688 62.078125 52.003906 70.125 51.207031 L 70.125 59.09375 C 70.125 59.683594 70.457031 60.238281 70.984375 60.511719 C 71.507812 60.78125 72.148438 60.734375 72.640625 60.382812 L 94.945312 44.449219 C 95.359375 44.148438 95.613281 43.671875 95.613281 43.160156 C 95.613281 42.652344 95.359375 42.15625 94.945312 41.871094 Z M 94.945312 41.855469 "/></g><g clip-rule="nonzero" clip-path="url(#d7b94188ce)"><path style=" stroke:none;fill-rule:nonzero;fill:#f9dbbd;fill-opacity:1;" d="M 65.039062 23.101562 L 49.109375 0.78125 C 48.503906 -0.0625 47.117188 -0.0625 46.511719 0.78125 L 30.578125 23.101562 C 30.230469 23.578125 30.179688 24.234375 30.453125 24.757812 C 30.722656 25.285156 31.265625 25.617188 31.871094 25.617188 L 39.835938 25.617188 L 39.835938 94.160156 C 39.835938 95.035156 40.554688 95.753906 41.429688 95.753906 L 54.175781 95.753906 C 55.050781 95.753906 55.769531 95.035156 55.769531 94.160156 L 55.769531 25.617188 L 63.734375 25.617188 C 64.339844 25.617188 64.882812 25.285156 65.152344 24.757812 C 65.421875 24.234375 65.375 23.59375 65.023438 23.101562 Z M 65.039062 23.101562 "/></g><g clip-rule="nonzero" clip-path="url(#b4384836a0)"><path style=" stroke:none;fill-rule:nonzero;fill:#da4956;fill-opacity:1;" d="M 25.511719 54.34375 L 25.511719 46.332031 C 25.511719 45.742188 25.179688 45.183594 24.652344 44.914062 C 24.125 44.640625 23.488281 44.691406 22.996094 45.039062 L 0.691406 60.972656 C 0.277344 61.273438 0.0195312 61.753906 0.0195312 62.261719 C 0.0195312 62.773438 0.277344 63.265625 0.691406 63.554688 L 22.996094 79.484375 C 23.488281 79.835938 24.125 79.882812 24.652344 79.613281 C 25.179688 79.34375 25.511719 78.800781 25.511719 78.195312 L 25.511719 70.308594 C 33.558594 71.105469 39.851562 77.925781 39.851562 86.160156 L 39.851562 94.128906 C 39.851562 95.003906 40.570312 95.722656 41.445312 95.722656 L 54.191406 95.722656 C 55.066406 95.722656 55.785156 95.003906 55.785156 94.128906 L 55.785156 86.160156 C 55.785156 69.113281 42.351562 55.15625 25.511719 54.328125 Z M 25.511719 54.34375 "/></g></g></svg>