<svg xmlns="http://www.w3.org/2000/svg" xmlns:xlink="http://www.w3.org/1999/xlink" width="53" zoomAndPan="magnify" viewBox="0 0 39.75 65.249999" height="87" preserveAspectRatio="xMidYMid meet" version="1.2"><defs><clipPath id="ea7141b8ab"><path d="M 0.101562 0 L 39 0 L 39 63.765625 L 0.101562 63.765625 Z M 0.101562 0 "/></clipPath></defs><g id="d8cc5eaa93"><g clip-rule="nonzero" clip-path="url(#ea7141b8ab)"><path style=" stroke:none;fill-rule:nonzero;fill:#da4956;fill-opacity:1;" d="M 36.578125 27.90625 L 11.230469 2.558594 C 8.828125 0.15625 4.925781 0.15625 2.523438 2.558594 C 0.125 4.957031 0.125 8.859375 2.523438 11.261719 L 23.515625 32.265625 L 2.523438 53.265625 C 0.125 55.667969 0.125 59.570312 2.523438 61.96875 C 3.6875 63.132812 5.230469 63.773438 6.871094 63.773438 C 8.511719 63.773438 10.066406 63.132812 11.230469 61.96875 L 36.578125 36.621094 C 38.980469 34.21875 38.980469 30.308594 36.578125 27.90625 Z M 36.578125 27.90625 "/></g></g></svg>